<svg width="59" height="62" viewBox="0 0 59 62" fill="none" xmlns="http://www.w3.org/2000/svg">
<mask id="path-1-outside-1" maskUnits="userSpaceOnUse" x="0.105469" y="0" width="59" height="62" fill="black">
<rect fill="white" x="0.105469" width="59" height="62"/>
<path fill-rule="evenodd" clip-rule="evenodd" d="M28.7615 53.2274H54.7284C54.0951 51.3257 52.8284 48.262 49.9784 46.9943C48.7117 46.466 47.3395 45.9378 45.8617 45.4096L45.7474 45.3664C41.0391 43.5864 36.5727 41.8978 36.5727 38.7539V33.049L36.8894 32.6264C38.5783 30.7248 39.845 28.7175 40.795 26.499L41.1117 25.7595H41.9561C42.8006 25.7595 43.4339 24.9143 43.4339 23.9635C43.4339 23.4353 43.2228 22.907 42.8006 22.5901L42.1672 22.0619L42.2728 21.3223C42.3783 20.7941 42.5894 14.7723 42.5894 14.4554C42.5894 10.5465 42.1672 9.27872 39.5283 8.43355C39.298 8.35672 38.621 8.27988 37.9441 8.20305C37.6902 8.17424 37.4364 8.14543 37.2061 8.11661L35.8338 8.01097L36.3616 4.20772L30.6616 3.78514C28.3393 3.4682 26.0171 4.10208 24.2226 5.58112C22.4281 7.06016 21.4781 9.27872 21.4781 11.6029C21.4781 15.0892 21.4781 20.6885 21.5837 21.2167L21.6892 21.9562L21.0559 22.3788C20.6337 22.6957 20.4226 23.224 20.4226 23.7522C20.4226 24.703 21.0559 25.4425 21.9004 25.5482H22.7448L23.0615 26.2877C24.0115 28.5062 25.2782 30.6192 26.9671 32.4151L27.2837 32.8377V38.5426H24.6448V33.8942C23.167 32.0982 21.9004 30.1966 20.9504 28.0837C19.1559 27.6611 17.7837 25.8651 17.7837 23.8578C17.7837 22.6957 18.2059 21.6393 18.9448 20.7941C18.9448 20.1003 18.927 19.0149 18.906 17.7352L18.906 17.735C18.8759 15.897 18.8392 13.6582 18.8392 11.6029C18.8392 8.5392 20.2115 5.58112 22.5337 3.57385C24.8559 1.56658 28.0226 0.615764 30.9782 1.14399L39.3172 1.88351L38.7894 5.58112C39.4228 5.68676 40.0561 5.79241 40.3728 5.89805C44.9117 7.48274 45.2284 10.5465 45.2284 14.4554C45.2284 14.4554 45.0172 19.1038 44.9117 21.0054C45.6506 21.8506 46.0728 22.907 46.0728 23.9635C46.0728 26.0764 44.7006 27.7667 42.9061 28.1893C41.9561 30.3022 40.6894 32.2039 39.2116 33.9998V38.6482C39.2116 39.9407 43.2311 41.5137 46.1681 42.6632L46.1682 42.6632C46.3522 42.7352 46.5319 42.8056 46.7062 42.8741C48.1839 43.4023 49.6617 43.9305 51.034 44.5644C56.4174 46.9943 57.684 53.9669 57.684 54.2838L57.8951 55.8685H28.7615V53.2274ZM13.2445 36.6413C6.59441 36.6413 1.10547 42.1348 1.10547 48.7905C1.10547 55.4462 6.59441 60.9398 13.2445 60.9398C19.8945 60.9398 25.3835 55.4462 25.3835 48.7905C25.3835 42.1348 19.8945 36.6413 13.2445 36.6413ZM13.2445 58.2986C7.96664 58.2986 3.74438 54.0728 3.74438 48.7905C3.74438 43.5082 7.96664 39.2824 13.2445 39.2824C18.5223 39.2824 22.7446 43.5082 22.7446 48.7905C22.7446 54.0728 18.5223 58.2986 13.2445 58.2986ZM7.01672 49.6357L11.7668 54.4954L19.5779 47.4171L17.7835 45.4099L11.8723 50.7978L8.91674 47.7341L7.01672 49.6357Z"/>
</mask>
<path fill-rule="evenodd" clip-rule="evenodd" d="M28.7615 53.2274H54.7284C54.0951 51.3257 52.8284 48.262 49.9784 46.9943C48.7117 46.466 47.3395 45.9378 45.8617 45.4096L45.7474 45.3664C41.0391 43.5864 36.5727 41.8978 36.5727 38.7539V33.049L36.8894 32.6264C38.5783 30.7248 39.845 28.7175 40.795 26.499L41.1117 25.7595H41.9561C42.8006 25.7595 43.4339 24.9143 43.4339 23.9635C43.4339 23.4353 43.2228 22.907 42.8006 22.5901L42.1672 22.0619L42.2728 21.3223C42.3783 20.7941 42.5894 14.7723 42.5894 14.4554C42.5894 10.5465 42.1672 9.27872 39.5283 8.43355C39.298 8.35672 38.621 8.27988 37.9441 8.20305C37.6902 8.17424 37.4364 8.14543 37.2061 8.11661L35.8338 8.01097L36.3616 4.20772L30.6616 3.78514C28.3393 3.4682 26.0171 4.10208 24.2226 5.58112C22.4281 7.06016 21.4781 9.27872 21.4781 11.6029C21.4781 15.0892 21.4781 20.6885 21.5837 21.2167L21.6892 21.9562L21.0559 22.3788C20.6337 22.6957 20.4226 23.224 20.4226 23.7522C20.4226 24.703 21.0559 25.4425 21.9004 25.5482H22.7448L23.0615 26.2877C24.0115 28.5062 25.2782 30.6192 26.9671 32.4151L27.2837 32.8377V38.5426H24.6448V33.8942C23.167 32.0982 21.9004 30.1966 20.9504 28.0837C19.1559 27.6611 17.7837 25.8651 17.7837 23.8578C17.7837 22.6957 18.2059 21.6393 18.9448 20.7941C18.9448 20.1003 18.927 19.0149 18.906 17.7352L18.906 17.735C18.8759 15.897 18.8392 13.6582 18.8392 11.6029C18.8392 8.5392 20.2115 5.58112 22.5337 3.57385C24.8559 1.56658 28.0226 0.615764 30.9782 1.14399L39.3172 1.88351L38.7894 5.58112C39.4228 5.68676 40.0561 5.79241 40.3728 5.89805C44.9117 7.48274 45.2284 10.5465 45.2284 14.4554C45.2284 14.4554 45.0172 19.1038 44.9117 21.0054C45.6506 21.8506 46.0728 22.907 46.0728 23.9635C46.0728 26.0764 44.7006 27.7667 42.9061 28.1893C41.9561 30.3022 40.6894 32.2039 39.2116 33.9998V38.6482C39.2116 39.9407 43.2311 41.5137 46.1681 42.6632L46.1682 42.6632C46.3522 42.7352 46.5319 42.8056 46.7062 42.8741C48.1839 43.4023 49.6617 43.9305 51.034 44.5644C56.4174 46.9943 57.684 53.9669 57.684 54.2838L57.8951 55.8685H28.7615V53.2274ZM13.2445 36.6413C6.59441 36.6413 1.10547 42.1348 1.10547 48.7905C1.10547 55.4462 6.59441 60.9398 13.2445 60.9398C19.8945 60.9398 25.3835 55.4462 25.3835 48.7905C25.3835 42.1348 19.8945 36.6413 13.2445 36.6413ZM13.2445 58.2986C7.96664 58.2986 3.74438 54.0728 3.74438 48.7905C3.74438 43.5082 7.96664 39.2824 13.2445 39.2824C18.5223 39.2824 22.7446 43.5082 22.7446 48.7905C22.7446 54.0728 18.5223 58.2986 13.2445 58.2986ZM7.01672 49.6357L11.7668 54.4954L19.5779 47.4171L17.7835 45.4099L11.8723 50.7978L8.91674 47.7341L7.01672 49.6357Z" fill="#B49A67"/>
<path d="M54.7284 53.2274V53.6274H55.2833L55.108 53.101L54.7284 53.2274ZM28.7615 53.2274V52.8274H28.3615V53.2274H28.7615ZM49.9784 46.9943L50.141 46.6287L50.1324 46.6251L49.9784 46.9943ZM45.8617 45.4096L45.7202 45.7838L45.7271 45.7862L45.8617 45.4096ZM45.7474 45.3664L45.8889 44.9922H45.8889L45.7474 45.3664ZM36.5727 33.049L36.2526 32.8091L36.1727 32.9158V33.049H36.5727ZM36.8894 32.6264L36.5903 32.3608L36.5793 32.3733L36.5693 32.3866L36.8894 32.6264ZM40.795 26.499L40.4273 26.3415V26.3415L40.795 26.499ZM41.1117 25.7595V25.3595H40.8478L40.7439 25.602L41.1117 25.7595ZM42.8006 22.5901L42.5444 22.8973L42.5522 22.9038L42.5604 22.91L42.8006 22.5901ZM42.1672 22.0619L41.7712 22.0053L41.7397 22.2262L41.911 22.369L42.1672 22.0619ZM42.2728 21.3223L41.8805 21.244L41.8784 21.2548L41.8768 21.2658L42.2728 21.3223ZM39.5283 8.43355L39.4017 8.81302L39.4063 8.81449L39.5283 8.43355ZM37.9441 8.20305L37.9892 7.8056V7.8056L37.9441 8.20305ZM37.2061 8.11661L37.2557 7.71971L37.2463 7.71853L37.2368 7.71779L37.2061 8.11661ZM35.8338 8.01097L35.4376 7.95599L35.3792 8.37715L35.8031 8.40979L35.8338 8.01097ZM36.3616 4.20772L36.7578 4.2627L36.8164 3.84034L36.3912 3.80882L36.3616 4.20772ZM30.6616 3.78514L30.6075 4.18146L30.6197 4.18313L30.632 4.18404L30.6616 3.78514ZM24.2226 5.58112L24.477 5.88978L24.2226 5.58112ZM21.5837 21.2167L21.9797 21.1602L21.9781 21.1492L21.9759 21.1383L21.5837 21.2167ZM21.6892 21.9562L21.9113 22.2889L22.1208 22.1491L22.0852 21.8997L21.6892 21.9562ZM21.0559 22.3788L20.8339 22.0461L20.8247 22.0522L20.8158 22.0589L21.0559 22.3788ZM21.9004 25.5482L21.8507 25.9451L21.8754 25.9482H21.9004V25.5482ZM22.7448 25.5482L23.1125 25.3907L23.0087 25.1482H22.7448V25.5482ZM23.0615 26.2877L23.4292 26.1302L23.0615 26.2877ZM26.9671 32.4151L27.2872 32.1753L27.2738 32.1574L27.2585 32.1411L26.9671 32.4151ZM27.2837 32.8377H27.6837V32.7045L27.6038 32.5979L27.2837 32.8377ZM27.2837 38.5426V38.9426H27.6837V38.5426H27.2837ZM24.6448 38.5426H24.2448V38.9426H24.6448V38.5426ZM24.6448 33.8942H25.0448V33.7508L24.9537 33.64L24.6448 33.8942ZM20.9504 28.0837L21.3152 27.9196L21.2342 27.7396L21.042 27.6943L20.9504 28.0837ZM18.9448 20.7941L19.2459 21.0574L19.3448 20.9443V20.7941H18.9448ZM18.906 17.7352L19.306 17.7287L19.3059 17.7261L18.906 17.7352ZM18.906 17.735L18.5061 17.7415L18.5061 17.744L18.906 17.735ZM22.5337 3.57385L22.7953 3.87647L22.5337 3.57385ZM30.9782 1.14399L30.9079 1.53775L30.9253 1.54087L30.9429 1.54243L30.9782 1.14399ZM39.3172 1.88351L39.7132 1.94004L39.7728 1.52235L39.3525 1.48508L39.3172 1.88351ZM38.7894 5.58112L38.3934 5.52459L38.3382 5.91138L38.7236 5.97566L38.7894 5.58112ZM40.3728 5.89805L40.5046 5.52037L40.4993 5.51861L40.3728 5.89805ZM45.2284 14.4554L45.6279 14.4735L45.6284 14.4644V14.4554H45.2284ZM44.9117 21.0054L44.5123 20.9832L44.5033 21.146L44.6105 21.2687L44.9117 21.0054ZM42.9061 28.1893L42.8144 27.8L42.6223 27.8452L42.5413 28.0253L42.9061 28.1893ZM39.2116 33.9998L38.9028 33.7457L38.8116 33.8564V33.9998H39.2116ZM46.1681 42.6632L46.322 42.2939L46.3139 42.2907L46.1681 42.6632ZM46.1682 42.6632L46.0144 43.0326L46.0225 43.0357L46.1682 42.6632ZM46.7062 42.8741L46.5597 43.2465L46.5715 43.2507L46.7062 42.8741ZM51.034 44.5644L50.8662 44.9276L50.8694 44.929L51.034 44.5644ZM57.684 54.2838H57.284V54.3103L57.2875 54.3366L57.684 54.2838ZM57.8951 55.8685V56.2685H58.352L58.2916 55.8157L57.8951 55.8685ZM28.7615 55.8685H28.3615V56.2685H28.7615V55.8685ZM11.7668 54.4954L11.4807 54.775L11.7499 55.0504L12.0354 54.7918L11.7668 54.4954ZM7.01672 49.6357L6.73376 49.353L6.45436 49.6326L6.73067 49.9153L7.01672 49.6357ZM19.5779 47.4171L19.8465 47.7135L20.141 47.4467L19.8762 47.1505L19.5779 47.4171ZM17.7835 45.4099L18.0817 45.1433L17.8125 44.8422L17.514 45.1142L17.7835 45.4099ZM11.8723 50.7978L11.5844 51.0755L11.8544 51.3553L12.1418 51.0934L11.8723 50.7978ZM8.91674 47.7341L9.20461 47.4563L8.92174 47.1631L8.63377 47.4513L8.91674 47.7341ZM54.7284 52.8274H28.7615V53.6274H54.7284V52.8274ZM49.8158 47.3597C52.4929 48.5506 53.7158 51.4528 54.3489 53.3538L55.108 53.101C54.4744 51.1987 53.1639 47.9735 50.141 46.6288L49.8158 47.3597ZM45.7271 45.7862C47.1993 46.3125 48.565 46.8382 49.8244 47.3634L50.1324 46.6251C48.8585 46.0938 47.4797 45.5631 45.9963 45.0329L45.7271 45.7862ZM45.606 45.7405L45.7202 45.7837L46.0032 45.0354L45.8889 44.9922L45.606 45.7405ZM36.1727 38.7539C36.1727 40.5458 37.4524 41.858 39.1865 42.9133C40.9302 43.9744 43.2632 44.8548 45.606 45.7405L45.8889 44.9922C43.5234 44.0979 41.269 43.2441 39.6024 42.2299C37.9263 41.2099 36.9727 40.1059 36.9727 38.7539H36.1727ZM36.1727 33.049V38.7539H36.9727V33.049H36.1727ZM36.5693 32.3866L36.2526 32.8091L36.8928 33.2889L37.2095 32.8663L36.5693 32.3866ZM40.4273 26.3415C39.4944 28.5201 38.251 30.4909 36.5903 32.3608L37.1885 32.8921C38.9056 30.9587 40.1956 28.915 41.1627 26.6564L40.4273 26.3415ZM40.7439 25.602L40.4273 26.3415L41.1627 26.6564L41.4794 25.9169L40.7439 25.602ZM41.9561 25.3595H41.1117V26.1595H41.9561V25.3595ZM43.0339 23.9635C43.0339 24.7816 42.5007 25.3595 41.9561 25.3595V26.1595C43.1004 26.1595 43.8339 25.047 43.8339 23.9635H43.0339ZM42.5604 22.91C42.8613 23.1358 43.0339 23.5327 43.0339 23.9635H43.8339C43.8339 23.3378 43.5843 22.6782 43.0407 22.2702L42.5604 22.91ZM41.911 22.369L42.5444 22.8973L43.0568 22.2829L42.4234 21.7547L41.911 22.369ZM41.8768 21.2658L41.7712 22.0053L42.5632 22.1184L42.6688 21.3789L41.8768 21.2658ZM42.1894 14.4554C42.1894 14.6034 42.1372 16.1774 42.071 17.7932C42.0381 18.5982 42.0019 19.4083 41.9674 20.0496C41.9501 20.3704 41.9334 20.6473 41.9178 20.8593C41.9013 21.0828 41.8878 21.2074 41.8805 21.244L42.665 21.4007C42.6841 21.3053 42.7003 21.1261 42.7156 20.918C42.7318 20.6983 42.7488 20.4155 42.7662 20.0926C42.801 19.4463 42.8373 18.6322 42.8704 17.826C42.9361 16.2197 42.9894 14.6242 42.9894 14.4554H42.1894ZM39.4063 8.81449C40.6747 9.22073 41.3195 9.69785 41.6876 10.468C42.0783 11.2857 42.1894 12.4901 42.1894 14.4554H42.9894C42.9894 12.5117 42.8895 11.1278 42.4094 10.1231C41.9066 9.07088 41.0208 8.49154 39.6503 8.05261L39.4063 8.81449ZM37.899 8.6005C38.2388 8.63906 38.5725 8.67696 38.8498 8.71466C39.1414 8.75428 39.3288 8.78868 39.4017 8.81299L39.6549 8.05411C39.4975 8.00159 39.2313 7.95916 38.9576 7.92195C38.6696 7.88281 38.3264 7.84387 37.9892 7.8056L37.899 8.6005ZM37.1564 8.51352C37.3894 8.54267 37.6457 8.57175 37.899 8.6005L37.9892 7.8056C37.7348 7.77673 37.4833 7.74818 37.2557 7.71971L37.1564 8.51352ZM35.8031 8.40979L37.1754 8.51543L37.2368 7.71779L35.8645 7.61215L35.8031 8.40979ZM35.9654 4.15274L35.4376 7.95599L36.23 8.06595L36.7578 4.2627L35.9654 4.15274ZM30.632 4.18404L36.332 4.60663L36.3912 3.80882L30.6911 3.38623L30.632 4.18404ZM24.477 5.88978C26.1826 4.48403 28.3921 3.87911 30.6075 4.18146L30.7156 3.38881C28.2865 3.05729 25.8516 3.72012 23.9682 5.27245L24.477 5.88978ZM21.8781 11.6029C21.8781 9.3866 22.7833 7.28576 24.477 5.88978L23.9682 5.27245C22.073 6.83455 21.0781 9.17084 21.0781 11.6029H21.8781ZM21.9759 21.1383C21.9759 21.1383 21.9759 21.1381 21.9758 21.1377C21.9757 21.1373 21.9756 21.1367 21.9755 21.1359C21.9752 21.1343 21.9749 21.1321 21.9744 21.1292C21.9736 21.1233 21.9725 21.1155 21.9713 21.1056C21.969 21.0856 21.9664 21.0597 21.9638 21.0274C21.9585 20.9627 21.9533 20.8787 21.9484 20.7758C21.9385 20.5702 21.93 20.2984 21.9226 19.9729C21.9078 19.3224 21.8979 18.4665 21.8913 17.5163C21.8781 15.6163 21.8781 13.3464 21.8781 11.6029H21.0781C21.0781 13.3457 21.0781 15.6186 21.0913 17.5219C21.0979 18.4733 21.1079 19.3342 21.1228 19.991C21.1302 20.3192 21.139 20.5987 21.1493 20.8141C21.159 21.0166 21.1712 21.1939 21.1914 21.2951L21.9759 21.1383ZM22.0852 21.8997L21.9797 21.1602L21.1877 21.2732L21.2933 22.0127L22.0852 21.8997ZM21.2779 22.7115L21.9113 22.2889L21.4672 21.6235L20.8339 22.0461L21.2779 22.7115ZM20.8226 23.7522C20.8226 23.3214 20.9952 22.9245 21.296 22.6987L20.8158 22.0589C20.2722 22.4669 20.0226 23.1265 20.0226 23.7522H20.8226ZM21.95 25.1513C21.3257 25.0732 20.8226 24.5221 20.8226 23.7522H20.0226C20.0226 24.8839 20.7861 25.8119 21.8507 25.9451L21.95 25.1513ZM22.7448 25.1482H21.9004V25.9482H22.7448V25.1482ZM23.4292 26.1302L23.1125 25.3907L22.3771 25.7056L22.6938 26.4451L23.4292 26.1302ZM27.2585 32.1411C25.6083 30.3864 24.3651 28.3158 23.4292 26.1302L22.6938 26.4451C23.6579 28.6967 24.948 30.852 26.6757 32.6892L27.2585 32.1411ZM27.6038 32.5979L27.2872 32.1753L26.647 32.655L26.9636 33.0776L27.6038 32.5979ZM27.6837 38.5426V32.8377H26.8837V38.5426H27.6837ZM24.6448 38.9426H27.2837V38.1426H24.6448V38.9426ZM24.2448 33.8942V38.5426H25.0448V33.8942H24.2448ZM20.5855 28.2477C21.5534 30.4004 22.8414 32.332 24.336 34.1483L24.9537 33.64C23.4926 31.8644 22.2473 29.9927 21.3152 27.9196L20.5855 28.2477ZM17.3837 23.8578C17.3837 26.0342 18.868 28.0042 20.8587 28.473L21.042 27.6943C19.4438 27.3179 18.1837 25.696 18.1837 23.8578H17.3837ZM18.6436 20.5308C17.8439 21.4456 17.3837 22.5946 17.3837 23.8578H18.1837C18.1837 22.7969 18.5678 21.833 19.2459 21.0574L18.6436 20.5308ZM18.5061 17.7418C18.5271 19.0232 18.5448 20.1044 18.5448 20.7941H19.3448C19.3448 20.0962 19.3269 19.0067 19.306 17.7287L18.5061 17.7418ZM18.5061 17.744L18.5061 17.7443L19.3059 17.7261L19.3059 17.7259L18.5061 17.744ZM18.4392 11.6029C18.4392 13.662 18.476 15.9041 18.5061 17.7415L19.306 17.7284C19.2758 15.8898 19.2392 13.6543 19.2392 11.6029H18.4392ZM22.2721 3.27123C19.8633 5.35329 18.4392 8.42121 18.4392 11.6029H19.2392C19.2392 8.65719 20.5596 5.80894 22.7953 3.87647L22.2721 3.27123ZM31.0486 0.750233C27.9655 0.199213 24.6786 1.19111 22.2721 3.27123L22.7953 3.87647C25.0332 1.94204 28.0798 1.03232 30.9079 1.53775L31.0486 0.750233ZM39.3525 1.48508L31.0136 0.745557L30.9429 1.54243L39.2819 2.28195L39.3525 1.48508ZM39.1854 5.63764L39.7132 1.94004L38.9212 1.82699L38.3934 5.52459L39.1854 5.63764ZM40.4993 5.51861C40.1447 5.40029 39.4698 5.28908 38.8552 5.18657L38.7236 5.97566C39.3757 6.08444 39.9675 6.18453 40.2462 6.27749L40.4993 5.51861ZM45.6284 14.4554C45.6284 12.5067 45.5535 10.6825 44.8681 9.14248C44.1684 7.57045 42.8574 6.34183 40.5046 5.52041L40.2409 6.2757C42.4271 7.03896 43.5438 8.13455 44.1372 9.46778C44.7449 10.833 44.8284 12.4951 44.8284 14.4554H45.6284ZM45.3111 21.0276C45.364 20.0748 45.4432 18.4357 45.5092 17.0361C45.5422 16.336 45.5719 15.6954 45.5933 15.2298C45.604 14.997 45.6127 14.8079 45.6187 14.6771C45.6217 14.6116 45.624 14.5608 45.6255 14.5262C45.6263 14.509 45.6269 14.4958 45.6273 14.4869C45.6275 14.4825 45.6277 14.4791 45.6278 14.4769C45.6278 14.4758 45.6279 14.4749 45.6279 14.4744C45.6279 14.4741 45.6279 14.4739 45.6279 14.4737C45.6279 14.4737 45.6279 14.4736 45.6279 14.4736C45.6279 14.4735 45.6279 14.4735 45.2284 14.4554C44.8288 14.4372 44.8288 14.4372 44.8288 14.4373C44.8288 14.4373 44.8288 14.4374 44.8288 14.4374C44.8288 14.4376 44.8287 14.4378 44.8287 14.4381C44.8287 14.4386 44.8287 14.4395 44.8286 14.4406C44.8285 14.4428 44.8284 14.4462 44.8282 14.4506C44.8278 14.4594 44.8272 14.4726 44.8264 14.4898C44.8248 14.5243 44.8225 14.5752 44.8195 14.6405C44.8135 14.7713 44.8049 14.9603 44.7941 15.193C44.7727 15.6584 44.743 16.2987 44.7101 16.9984C44.6441 18.3985 44.565 20.0344 44.5123 20.9832L45.3111 21.0276ZM46.4728 23.9635C46.4728 22.801 46.0092 21.653 45.2128 20.7421L44.6105 21.2687C45.292 22.0482 45.6728 23.013 45.6728 23.9635H46.4728ZM42.9978 28.5787C44.983 28.1112 46.4728 26.2515 46.4728 23.9635H45.6728C45.6728 25.9013 44.4182 27.4223 42.8144 27.8L42.9978 28.5787ZM39.5205 34.254C41.015 32.4377 42.303 30.5061 43.2709 28.3533L42.5413 28.0253C41.6092 30.0984 40.3638 31.97 38.9028 33.7457L39.5205 34.254ZM39.6116 38.6482V33.9998H38.8116V38.6482H39.6116ZM46.3139 42.2907C44.8404 41.714 43.121 41.0407 41.77 40.3529C41.093 40.0082 40.5289 39.6699 40.1394 39.3501C39.945 39.1903 39.807 39.0456 39.7202 38.9187C39.6333 38.7919 39.6116 38.7039 39.6116 38.6482H38.8116C38.8116 38.9157 38.9155 39.1596 39.06 39.3706C39.2044 39.5816 39.4035 39.7808 39.6317 39.9683C40.0877 40.3428 40.712 40.7119 41.407 41.0658C42.7999 41.7749 44.5588 42.4629 46.0223 43.0357L46.3139 42.2907ZM46.3221 42.294L46.322 42.2939L46.0143 43.0324L46.0144 43.0325L46.3221 42.294ZM46.8525 42.5018C46.678 42.4332 46.4979 42.3627 46.314 42.2907L46.0225 43.0357C46.2065 43.1078 46.3859 43.178 46.5598 43.2463L46.8525 42.5018ZM51.2017 44.2013C49.8104 43.5586 48.3153 43.0245 46.8408 42.4974L46.5715 43.2507C48.0526 43.7801 49.5131 44.3025 50.8662 44.9275L51.2017 44.2013ZM58.084 54.2838C58.084 54.2287 58.0738 54.1534 58.0639 54.0885C58.0522 54.0123 58.0348 53.9139 58.0113 53.7964C57.9643 53.5612 57.8915 53.244 57.7876 52.8669C57.5799 52.113 57.2458 51.1133 56.7392 50.045C55.7293 47.9157 54.0118 45.4696 51.1985 44.1998L50.8694 44.929C53.4395 46.089 55.0471 48.3442 56.0164 50.3879C56.4993 51.4061 56.8184 52.3608 57.0164 53.0794C57.1153 53.4385 57.1836 53.7371 57.2269 53.9533C57.2485 54.0616 57.2636 54.1478 57.2731 54.2098C57.2844 54.283 57.284 54.2993 57.284 54.2838H58.084ZM58.2916 55.8157L58.0805 54.231L57.2875 54.3366L57.4986 55.9213L58.2916 55.8157ZM28.7615 56.2685H57.8951V55.4685H28.7615V56.2685ZM28.3615 53.2274V55.8685H29.1615V53.2274H28.3615ZM1.50547 48.7905C1.50547 42.3554 6.81564 37.0413 13.2445 37.0413V36.2413C6.37318 36.2413 0.705469 41.9142 0.705469 48.7905H1.50547ZM13.2445 60.5398C6.81564 60.5398 1.50547 55.2256 1.50547 48.7905H0.705469C0.705469 55.6668 6.37318 61.3398 13.2445 61.3398V60.5398ZM24.9835 48.7905C24.9835 55.2256 19.6733 60.5398 13.2445 60.5398V61.3398C20.1158 61.3398 25.7835 55.6668 25.7835 48.7905H24.9835ZM13.2445 37.0413C19.6733 37.0413 24.9835 42.3554 24.9835 48.7905H25.7835C25.7835 41.9142 20.1158 36.2413 13.2445 36.2413V37.0413ZM3.34438 48.7905C3.34438 54.2934 7.74541 58.6987 13.2445 58.6987V57.8986C8.18788 57.8986 4.14438 53.8522 4.14438 48.7905H3.34438ZM13.2445 38.8824C7.74541 38.8824 3.34438 43.2876 3.34438 48.7905H4.14438C4.14438 43.7288 8.18788 39.6824 13.2445 39.6824V38.8824ZM23.1446 48.7905C23.1446 43.2876 18.7435 38.8824 13.2445 38.8824V39.6824C18.3011 39.6824 22.3446 43.7288 22.3446 48.7905H23.1446ZM13.2445 58.6987C18.7435 58.6987 23.1446 54.2934 23.1446 48.7905H22.3446C22.3446 53.8522 18.3011 57.8986 13.2445 57.8986V58.6987ZM12.0528 54.2158L7.30277 49.3561L6.73067 49.9153L11.4807 54.775L12.0528 54.2158ZM19.3094 47.1207L11.4982 54.199L12.0354 54.7918L19.8465 47.7135L19.3094 47.1207ZM17.4853 45.6764L19.2797 47.6837L19.8762 47.1505L18.0817 45.1433L17.4853 45.6764ZM12.1418 51.0934L18.0529 45.7055L17.514 45.1142L11.6029 50.5022L12.1418 51.0934ZM8.62886 48.0118L11.5844 51.0755L12.1602 50.5201L9.20461 47.4563L8.62886 48.0118ZM7.29968 49.9184L9.1997 48.0168L8.63377 47.4513L6.73376 49.353L7.29968 49.9184Z" fill="#B49A67" mask="url(#path-1-outside-1)"/>
</svg>