<svg width="276" height="396" viewBox="0 0 276 396" fill="none" xmlns="http://www.w3.org/2000/svg">
<rect width="276" height="396" fill="#F8F8F8"/>
<g clip-path="url(#clip0)">
<path d="M50.4422 223.717V232.419H49.3635V223.717H46.9998V222.698H52.8112V223.717H50.4422Z" fill="#223A76"/>
<path d="M61.896 229.679H57.7502L56.5816 232.419H55.3865L59.8654 222.228L64.2279 232.419H63.0329L61.896 229.679ZM61.4729 228.66L59.8389 224.768L58.1732 228.66H61.4729Z" fill="#223A76"/>
<path d="M70.0817 222.698C70.7374 222.698 71.7157 222.74 72.4454 223.237C73.0165 223.617 73.5083 224.356 73.5083 225.391C73.5083 226.88 72.53 227.973 71.0547 228.073L74.1481 232.419H72.8367L69.8754 228.163H69.5952V232.419H68.5217V222.698H70.0817ZM69.6005 227.202H70.2879C71.6311 227.202 72.4348 226.558 72.4348 225.423C72.4348 224.884 72.2762 224.346 71.6628 223.992C71.2239 223.744 70.7268 223.717 70.2615 223.717H69.6058V227.202H69.6005Z" fill="#223A76"/>
<path d="M84.1318 229.679H79.986L78.8174 232.419H77.6223L82.1012 222.228L86.4638 232.419H85.2687L84.1318 229.679ZM83.7088 228.66L82.0748 224.768L80.4091 228.66H83.7088Z" fill="#223A76"/>
<path d="M94.9456 224.62C94.8134 224.356 94.5966 224.066 94.3745 223.892C94.1841 223.744 93.8351 223.554 93.2799 223.554C92.3175 223.554 91.6459 224.15 91.6459 225.053C91.6459 225.433 91.7464 225.655 92.0108 225.898C92.3016 226.189 92.6665 226.352 93.0313 226.511L93.9673 226.917C94.5384 227.165 95.0619 227.429 95.4691 227.836C95.9662 228.332 96.1724 228.903 96.1724 229.6C96.1724 231.39 94.8451 232.588 93.0895 232.588C92.4497 232.588 91.6459 232.456 90.9743 231.801C90.4931 231.337 90.2023 230.666 90.0701 230.08L91.1224 229.79C91.1964 230.302 91.4291 230.735 91.7041 231.031C92.1271 231.453 92.6083 231.569 93.1054 231.569C94.4326 231.569 95.0619 230.624 95.0619 229.647C95.0619 229.209 94.9297 228.829 94.5807 228.507C94.3057 228.243 93.925 228.068 93.4121 227.836L92.5343 227.429C92.1535 227.255 91.6723 227.049 91.2334 226.627C90.8104 226.22 90.5618 225.766 90.5618 225.037C90.5618 223.538 91.7146 222.529 93.2904 222.529C93.888 222.529 94.3692 222.645 94.8504 222.968C95.2417 223.232 95.5801 223.622 95.7969 224.045L94.9456 224.62Z" fill="#223A76"/>
<path d="M100.54 227.561C100.54 224.662 102.804 222.534 105.606 222.534C108.409 222.534 110.672 224.662 110.672 227.561C110.672 230.449 108.425 232.588 105.606 232.588C102.788 232.593 100.54 230.449 100.54 227.561ZM101.651 227.561C101.651 229.789 103.417 231.569 105.606 231.569C107.795 231.569 109.562 229.789 109.562 227.561C109.562 225.333 107.795 223.553 105.606 223.553C103.417 223.553 101.651 225.333 101.651 227.561Z" fill="#223A76"/>
<path d="M115.162 222.698L117.906 230.117L120.651 222.698H121.846L117.906 233L113.967 222.698H115.162Z" fill="#223A76"/>
<path d="M139.936 228.86C139.671 229.224 139.296 229.689 138.693 230.302L140.327 232.414H138.984L137.932 231.057C137.086 231.902 135.901 232.588 134.791 232.588C133.199 232.588 131.972 231.437 131.972 229.895C131.972 228.844 132.527 228.205 132.85 227.883C133.363 227.371 134.283 226.806 134.484 226.674C133.828 225.829 133.522 225.243 133.522 224.588C133.522 223.569 134.235 222.534 135.637 222.534C136.996 222.534 137.694 223.511 137.694 224.488C137.694 224.937 137.562 225.581 136.79 226.252C136.541 226.468 136.631 226.352 136.002 226.88L138.032 229.488C138.556 228.934 138.862 228.586 139.143 228.205L139.936 228.86ZM135.119 227.477C134.405 227.915 134.024 228.237 133.749 228.485C133.474 228.733 133.061 229.124 133.061 229.884C133.061 230.845 133.775 231.606 134.785 231.606C135.822 231.606 136.916 230.613 137.281 230.265L135.119 227.477ZM135.383 226.093L136.023 225.597C136.578 225.159 136.678 224.81 136.678 224.478C136.678 223.791 136.139 223.469 135.626 223.469C135.029 223.469 134.547 223.918 134.547 224.53C134.547 224.953 134.754 225.233 134.939 225.491L135.383 226.093Z" fill="#223A76"/>
<path d="M152.727 222.698C153.706 222.698 154.52 222.814 155.181 223.385C155.895 223.997 156.069 224.858 156.069 225.47C156.069 226.838 155.207 228.195 152.992 228.195H152.045V232.424H150.961V222.703H152.727V222.698ZM152.04 227.171H152.928C154.213 227.171 154.985 226.532 154.985 225.407C154.985 223.86 153.542 223.717 152.838 223.717H152.035V227.171H152.04Z" fill="#223A76"/>
<path d="M165.143 229.679H160.998L159.829 232.419H158.634L163.118 222.228L167.481 232.419H166.286L165.143 229.679ZM164.72 228.66L163.086 224.768L161.421 228.66H164.72Z" fill="#223A76"/>
<path d="M173.329 222.698C173.985 222.698 174.963 222.74 175.693 223.237C176.259 223.617 176.756 224.356 176.756 225.391C176.756 226.88 175.778 227.973 174.302 228.073L177.396 232.419H176.079L173.118 228.163H172.838V232.419H171.759V222.698H173.329ZM172.848 227.202H173.536C174.879 227.202 175.682 226.558 175.682 225.423C175.682 224.884 175.524 224.346 174.905 223.992C174.466 223.744 173.969 223.717 173.504 223.717H172.848V227.202Z" fill="#223A76"/>
<path d="M184.402 223.717V232.419H183.323V223.717H180.96V222.698H186.771V223.717H184.402Z" fill="#223A76"/>
<path d="M191.139 232.419V222.292L198.727 230.233V222.698H199.806V232.857L192.223 224.911V232.414H191.139V232.419Z" fill="#223A76"/>
<path d="M210.287 223.717H206.316V226.606H210.17V227.625H206.316V231.4H210.287V232.419H205.237V222.698H210.287V223.717Z" fill="#223A76"/>
<path d="M216.743 222.698C217.399 222.698 218.377 222.74 219.107 223.237C219.673 223.617 220.17 224.356 220.17 225.391C220.17 226.88 219.192 227.973 217.716 228.073L220.81 232.419H219.493L216.532 228.163H216.252V232.419H215.173V222.698H216.743ZM216.262 227.202H216.95C218.293 227.202 219.097 226.558 219.097 225.423C219.097 224.884 218.938 224.346 218.319 223.992C217.88 223.744 217.383 223.717 216.918 223.717H216.262V227.202Z" fill="#223A76"/>
<path d="M229.778 224.62C229.646 224.356 229.429 224.066 229.207 223.892C229.017 223.744 228.668 223.554 228.113 223.554C227.15 223.554 226.479 224.15 226.479 225.053C226.479 225.433 226.579 225.655 226.844 225.898C227.134 226.189 227.499 226.352 227.864 226.511L228.8 226.917C229.371 227.165 229.895 227.429 230.302 227.836C230.799 228.332 231 228.903 231 229.6C231 231.39 229.673 232.588 227.922 232.588C227.277 232.588 226.479 232.456 225.807 231.801C225.326 231.337 225.035 230.666 224.903 230.08L225.955 229.79C226.029 230.302 226.262 230.735 226.537 231.031C226.96 231.453 227.441 231.569 227.938 231.569C229.265 231.569 229.895 230.624 229.895 229.647C229.895 229.209 229.762 228.829 229.413 228.507C229.138 228.243 228.758 228.068 228.245 227.836L227.367 227.429C226.986 227.255 226.505 227.049 226.066 226.627C225.643 226.22 225.395 225.766 225.395 225.037C225.395 223.538 226.547 222.529 228.123 222.529C228.721 222.529 229.202 222.645 229.688 222.968C230.08 223.232 230.418 223.622 230.635 224.045L229.778 224.62Z" fill="#223A76"/>
<path d="M163.071 163.945H114.934V155H163.071V163.945ZM116.764 162.113H161.236V156.832H116.764V162.113Z" fill="#223A76"/>
<path d="M123.11 209.651V167.229H132.067V201.107L123.11 209.651ZM124.945 169.061V205.373L130.233 200.331V169.061H124.945Z" fill="#223A76"/>
<path d="M134.764 197.849V167.229H143.722V189.311L134.764 197.849ZM136.599 169.061V193.572L141.887 188.529V169.061H136.599Z" fill="#223A76"/>
<path d="M146.424 186.27V167.229H155.382V178.307L146.424 186.27ZM148.254 169.061V182.193L153.542 177.494V169.061H148.254Z" fill="#223A76"/>
</g>
<defs>
<clipPath id="clip0">
<rect width="184" height="78" fill="white" transform="translate(47 155)"/>
</clipPath>
</defs>
</svg>
