<?xml version="1.0" encoding="utf-8"?>
<!-- Generator: Adobe Illustrator 22.1.0, SVG Export Plug-In . SVG Version: 6.00 Build 0)  -->
<svg version="1.1" id="Layer_1" xmlns="http://www.w3.org/2000/svg" xmlns:xlink="http://www.w3.org/1999/xlink" x="0px" y="0px"
	 viewBox="0 0 88.1 41.1" style="enable-background:new 0 0 88.1 41.1;" xml:space="preserve">
<style type="text/css">
	.st0{fill:#B49A67;}
</style>
<path class="st0" d="M86.5,12.6c-1.6-3.7-4.1-6.8-7.3-9c-1.7-1.1-3.5-2-5.3-2.6c-1.9-0.6-4-0.9-6-0.9c-2.9,0-5.7,0.6-8.4,1.7
	c-2.1,0.9-4.2,2.1-6.3,3.6c-3.4,2.5-6.4,5.5-9,8.4c-1.4-1.6-3-3.2-4.6-4.7c-2.9-2.8-5.7-4.8-8.5-6.3c-1.6-0.9-3.3-1.5-5-2
	C24.1,0.2,22.3,0,20.3,0c-2.8,0-5.4,0.5-7.9,1.6C8.8,3.2,5.7,5.8,3.5,9.1c-1.1,1.7-2,3.5-2.6,5.4c-0.6,1.9-0.9,4-0.9,6.1
	c0,2.8,0.5,5.5,1.6,8c1.6,3.7,4.1,6.8,7.3,9c1.7,1.1,3.5,2,5.3,2.6c2,0.6,4,0.9,6,0.9c2.9,0,5.7-0.6,8.4-1.7
	c2.1-0.9,4.2-2.1,6.3-3.6c3.4-2.5,6.4-5.5,9-8.4c1.4,1.6,3,3.2,4.6,4.7c2.9,2.8,5.7,4.8,8.5,6.3c1.6,0.9,3.3,1.5,5,2
	c1.8,0.5,3.7,0.7,5.6,0.7c2.8,0,5.4-0.5,7.9-1.6c3.6-1.6,6.7-4.1,8.9-7.4c1.1-1.7,2-3.5,2.6-5.4c0.6-2,0.9-4.1,0.9-6.1
	C88.1,17.8,87.6,15.1,86.5,12.6z M79.1,20.6c0,1.6-0.4,3.1-0.9,4.4c-0.9,2.1-2.3,3.8-4.1,5c-0.9,0.6-1.9,1.1-3,1.4
	c-1.1,0.3-2.2,0.5-3.4,0.5c-1.7,0-3.3-0.3-5-1c-1.5-0.6-2.9-1.5-4.4-2.5c-2.3-1.7-4.8-4-7.9-7.4l-0.4-0.4l0,0
	c0.1-0.1,0.1-0.1,0.2-0.2c1.7-1.8,3.1-3.3,4.5-4.6c2.3-2.2,4.5-3.8,6.5-4.9c1.2-0.6,2.2-1,3.2-1.3c1.1-0.3,2.2-0.4,3.3-0.4
	c1.5,0,3,0.3,4.4,0.9c2,0.9,3.8,2.3,5,4.2c0.6,0.9,1.1,1.9,1.4,3C79,18.3,79.1,19.4,79.1,20.6z M38,20.6c-0.1,0.1-0.1,0.1-0.2,0.2
	c-1.7,1.8-3.1,3.3-4.5,4.6c-2.3,2.2-4.5,3.8-6.5,4.9c-1.2,0.6-2.2,1-3.2,1.3c-1.1,0.3-2.2,0.4-3.3,0.4c-1.5,0-3-0.3-4.4-0.9
	c-2-0.9-3.8-2.3-5-4.2C10.3,26,9.8,25,9.5,24C9.2,22.9,9,21.7,9,20.5c0-1.5,0.3-3,0.9-4.5c0.9-2.1,2.3-3.8,4.1-5
	c0.9-0.6,1.9-1.1,3-1.4c1.1-0.3,2.2-0.5,3.4-0.5c1.7,0,3.3,0.3,5,1c1.5,0.6,2.9,1.5,4.4,2.5c2.3,1.7,4.8,4,7.9,7.4L38,20.6L38,20.6z
	"/>
</svg>
