<svg width="68" height="59" viewBox="0 0 68 59" fill="none" xmlns="http://www.w3.org/2000/svg">
<path d="M66.9577 27.4188L56.5228 6.23107C56.2329 5.64658 55.6532 5.35434 55.0735 5.35434L54.3488 5.50046H40.8703C39.8558 1.55515 35.9427 -0.782798 32.0296 0.240057C29.5657 0.970668 27.5367 2.87026 26.8121 5.50046H13.3336L12.6089 5.35434C12.0292 5.35434 11.4495 5.64658 11.1596 6.23107L1.15944 27.4188C0.434789 27.5649 0 28.1494 0 28.88C0 35.3094 5.7972 40.7159 12.8988 40.7159C20.0004 40.7159 25.9425 35.4555 25.9425 28.88C25.9425 28.1494 25.5077 27.5649 24.7831 27.4188L15.5075 8.71515H26.957C27.5367 11.4915 29.7107 13.6833 32.4643 14.2678V41.3004C27.5367 41.8849 23.6236 45.6841 22.899 49.6294H19.5656C18.696 49.6294 17.9713 50.36 17.8264 51.3828V57.52C17.9713 58.3967 18.696 58.9812 19.5656 58.9812H48.4067C49.2762 59.1273 50.0009 58.3967 50.1458 57.6661V51.529C50.1458 50.6522 49.4212 49.9216 48.4067 49.7755H45.0733C44.4935 45.9763 40.5804 42.1771 35.5079 41.4465V14.2678C38.2616 13.6833 40.4355 11.4915 41.0152 8.71515H52.4647L43.1892 27.4188C42.4645 27.5649 42.0297 28.1494 42.0297 28.88C42.0297 35.3094 47.8269 40.7159 55.0735 40.7159C62.32 40.7159 67.9722 35.4555 67.9722 28.88C68.1172 28.1494 67.6824 27.5649 66.9577 27.4188ZM12.8988 37.5012C8.11609 37.5012 4.05804 34.1404 3.18846 30.3412H22.754C21.8845 34.1404 17.8264 37.5012 12.8988 37.5012ZM21.3047 27.1265H4.49283L12.8988 10.1764L21.3047 27.1265ZM47.1023 52.6979V55.7665H21.0149V52.6979H47.1023ZM41.8848 49.6294H26.0874C26.6671 46.5608 30.0005 44.2228 33.9136 44.2228C37.9717 44.2228 41.3051 46.4147 41.8848 49.6294ZM34.0586 11.3453C31.7397 11.3453 29.8556 9.44576 29.8556 7.1078C29.8556 4.76984 31.7397 2.87026 34.0586 2.87026C36.3775 2.87026 38.2616 4.76984 38.2616 7.1078C38.1166 9.44576 36.3775 11.3453 34.0586 11.3453ZM55.2184 10.3225L63.4794 27.1265H46.8124L55.2184 10.3225ZM55.2184 37.5012C50.2908 37.5012 46.2327 34.1404 45.3631 30.3412H64.9287C64.0591 34.1404 60.0011 37.5012 55.2184 37.5012Z" fill="#B49A67"/>
</svg>
