<svg width="59" height="58" viewBox="0 0 59 58" fill="none" xmlns="http://www.w3.org/2000/svg">
<path d="M38.5558 8.20484H38.3513V5.92419H38.5558V8.20484ZM38.0513 1V5.62419H20.9487V1V0.85H20.7987H13.6106H13.4606V1V5.62419H1H0.85V5.77419V57V57.15H1H58H58.15V57V5.77419V5.62419H58H45.5394V1V0.85H45.3894H38.2013H38.0513V1ZM45.5394 13.129V8.50484H55.3279V17.8823H3.67212V8.50484H13.4606V13.129V13.279H13.6106H20.7987H20.9487V13.129V8.50484H38.0513V13.129V13.279H38.2013H45.3894H45.5394V13.129ZM20.6487 5.92419V8.20484H20.4442V5.92419H20.6487ZM3.67212 54.2694V20.7629H55.3279V54.2694H3.67212ZM27.5011 39.5564L27.6031 39.6608L27.7103 39.5617L39.4516 28.6983L42.7839 32.4732L27.3622 46.7257L17.9829 37.0025L21.5535 33.4708L27.5011 39.5564ZM39.703 24.645L39.5964 24.5192L39.4812 24.6371L37.7185 26.4407L27.74 35.6297L23.4281 31.2177L21.6626 29.4113L21.5553 29.3015L21.448 29.4113L19.6843 31.2159L19.6825 31.2177L15.9011 34.9578L15.8994 34.9597L14.1339 36.7661L14.0314 36.871L14.1339 36.9758L15.8987 38.7816L15.8994 38.7823L25.4812 48.7154L27.119 50.5202L27.2221 50.6338L27.3334 50.5281L29.0978 48.8517L29.0989 48.8507L44.6062 34.4025L44.6089 34.4001L46.4977 32.7251L46.6075 32.6278L46.5127 32.516L44.8733 30.5805L44.8733 30.5804L44.8713 30.5781L41.3423 26.5805L41.3403 26.5781L39.703 24.645ZM16.4088 3.73065H18.2527V10.3984H16.4088V3.73065ZM40.9996 3.73065H42.8434V10.3984H40.9996V3.73065Z" fill="#B49A67" stroke="#B49A67" stroke-width="0.3"/>
</svg>
