<svg width="90" height="42" viewBox="0 0 90 42" fill="none" xmlns="http://www.w3.org/2000/svg">
<path d="M87.1796 13.0526L87.1802 13.0541C88.1879 15.4809 88.7641 18.1514 88.7641 20.9439C88.7641 23.0335 88.4278 25.0482 87.8527 26.9631C87.2759 28.8834 86.4112 30.6563 85.332 32.2816L85.3315 32.2824C83.1711 35.5116 80.1226 38.0611 76.5221 39.6151C74.1192 40.6603 71.477 41.2188 68.7165 41.2188C66.7989 41.2188 64.9507 40.9763 63.1967 40.4902C61.4482 40.0057 59.7722 39.3275 58.2162 38.5042L58.2155 38.5039C55.0847 36.8359 52.318 34.6391 49.7497 32.2097C48.0948 30.6519 46.5301 28.9833 44.995 27.3165C44.9731 27.3392 44.952 27.3607 44.932 27.3808L44.9277 27.3851C42.1083 30.4526 39.1585 33.4611 35.799 35.9434L35.7987 35.9436C33.8669 37.3669 31.8111 38.6008 29.5839 39.5213M87.1796 13.0526L29.4789 39.2673M87.1796 13.0526C85.6438 9.41174 83.1237 6.32798 79.9303 4.14223L79.9295 4.14169C78.3229 3.05018 76.5701 2.17541 74.6713 1.59177C72.7739 0.984612 70.7807 0.669037 68.7165 0.669037C65.7406 0.669037 62.9581 1.30031 60.3944 2.36661C58.1673 3.28709 56.1115 4.52092 54.1798 5.94417L54.1795 5.9444C50.82 8.42669 47.8703 11.4353 45.0508 14.5027L45.0465 14.507C45.0266 14.5272 45.0054 14.5486 44.9835 14.5713C43.4484 12.9045 41.8838 11.2359 40.2288 9.67812M87.1796 13.0526L40.2288 9.67812M29.5839 39.5213L29.4789 39.2673M29.5839 39.5213C29.5841 39.5212 29.5843 39.5211 29.5845 39.5211L29.4789 39.2673M29.5839 39.5213C27.0203 40.5875 24.2378 41.2188 21.262 41.2188C19.1951 41.2188 17.2024 40.8784 15.3086 40.2965C13.4093 39.7128 11.6561 38.8379 10.049 37.7461L10.0482 37.7456C6.85497 35.5599 4.33485 32.4763 2.79903 28.8355M29.4789 39.2673C26.9452 40.3212 24.1983 40.9439 21.262 40.9439C19.2255 40.9439 17.2601 40.6086 15.3894 40.0337C13.5187 39.4589 11.79 38.5966 10.2035 37.5188C7.05404 35.3631 4.56765 32.3212 3.05213 28.7283M2.79903 28.8355C2.79908 28.8357 2.79912 28.8358 2.79917 28.8359L3.05213 28.7283M2.79903 28.8355C1.76622 26.4059 1.21439 23.7347 1.21439 20.9439C1.21439 18.8576 1.52604 16.8183 2.12643 14.9227C2.7032 13.0032 3.56767 11.2309 4.6465 9.60623L4.64702 9.60544C6.80748 6.37608 9.85613 3.82654 13.4567 2.27254C15.8596 1.22749 18.5016 0.669037 21.262 0.669037C23.1796 0.669037 25.0278 0.911514 26.7818 1.39758C28.5303 1.88214 30.2063 2.56032 31.7623 3.38358L31.763 3.38395C34.8938 5.05192 37.6605 7.2487 40.2288 9.67812M2.79903 28.8355C2.79898 28.8354 2.79892 28.8353 2.79887 28.8352L3.05213 28.7283M3.05213 28.7283C2.0339 26.3331 1.48926 23.6984 1.48926 20.9439C1.48926 18.884 1.7971 16.8721 2.38909 15.0038C2.95741 13.1116 3.80989 11.3631 4.87549 9.75828L40.2288 9.67812M59.0314 29.2792C60.5233 30.405 62.0151 31.2673 63.507 31.89C65.2119 32.5846 66.8932 32.9679 68.7165 32.9679C69.9479 32.9679 71.1319 32.7762 72.2448 32.417C73.3578 32.0577 74.3997 31.5547 75.3469 30.908C77.2413 29.6146 78.7568 27.7703 79.6567 25.6146C80.2486 24.1774 80.5802 22.5966 80.6275 20.9679C80.6275 19.7224 80.4381 18.5247 80.0829 17.399C79.7277 16.2732 79.2304 15.2194 78.5911 14.2613C77.3123 12.3451 75.489 10.8122 73.3578 9.90199L59.0314 29.2792ZM59.0314 29.2792C56.403 27.3391 53.7508 24.7044 51.075 21.7822L59.0314 29.2792ZM38.9212 21.3495L38.921 21.3493L38.914 21.3569C37.4012 23.0067 35.9138 24.5589 34.4513 25.9667C32.2369 28.0635 30.0318 29.77 27.8594 30.928C26.7589 31.4963 25.6899 31.942 24.6032 32.2227C23.5088 32.5053 22.4191 32.669 21.262 32.669C19.6662 32.669 18.1397 32.3416 16.7518 31.7568C14.6709 30.8679 12.8893 29.3704 11.6398 27.4979C11.0156 26.5626 10.5293 25.5325 10.1814 24.4301C9.83468 23.3311 9.64954 22.1614 9.64954 20.9439C9.64954 19.3283 9.97355 17.7832 10.5521 16.3785C11.4314 14.2724 12.9124 12.4703 14.7629 11.2068C15.6873 10.5757 16.7052 10.0841 17.7944 9.73243C18.8802 9.38194 20.0357 9.19483 21.2383 9.19483C23.0202 9.19483 24.6659 9.56873 26.3431 10.2519C27.8113 10.8649 29.2829 11.715 30.7578 12.828L30.7602 12.8297C33.3666 14.7536 36.0042 17.3723 38.6763 20.2903C38.7946 20.422 38.9189 20.5596 39.0428 20.697C39.1171 20.7792 39.1913 20.8614 39.2642 20.9423C39.1598 21.0856 39.0454 21.2238 38.9212 21.3495ZM73.2504 10.155C75.3313 11.0438 77.1129 12.5414 78.3624 14.4138C78.9866 15.3491 79.4729 16.3793 79.8208 17.4817C80.1671 18.5795 80.3522 19.7478 80.3527 20.9638C80.3058 22.5589 79.981 24.105 79.403 25.5087C78.5238 27.615 77.0427 29.4173 75.1919 30.681C74.2676 31.3121 73.2496 31.8038 72.1604 32.1554C71.0747 32.5059 69.9192 32.693 68.7165 32.693C66.9347 32.693 65.289 32.3191 63.6117 31.6359C62.1436 31.0229 60.672 30.1728 59.197 29.0598L59.1947 29.0581C56.5883 27.1342 53.9507 24.5156 51.2787 21.5976C51.1603 21.4659 51.036 21.3283 50.912 21.1909C50.8455 21.1172 50.779 21.0435 50.7135 20.9709C50.7492 20.9307 50.784 20.8909 50.8178 20.8522L50.8204 20.8491C50.9101 20.7463 50.9934 20.651 51.081 20.5623L51.0812 20.5624L51.0882 20.5548C52.601 18.9051 54.0884 17.3529 55.5509 15.9451C57.7653 13.8483 59.9704 12.1417 62.1428 10.9837C63.2433 10.4154 64.3124 9.96973 65.399 9.68909C66.4934 9.40646 67.5831 9.24273 68.7402 9.24273C70.336 9.24273 71.8625 9.57016 73.2504 10.155Z" fill="#B49A67" stroke="#B49A67" stroke-width="0.549743"/>
</svg>
