<svg width="261" height="74" viewBox="0 0 261 74" fill="none" xmlns="http://www.w3.org/2000/svg">
<path fill-rule="evenodd" clip-rule="evenodd" d="M80.9366 10.7185V62.6255H79.6079V10.7185H80.9366Z" fill="white"/>
<path fill-rule="evenodd" clip-rule="evenodd" d="M126.136 32.5005H124.542V30.7981H119.64V32.5005H118.046V29.2284H118.771L121.137 22.1045H123.033L125.4 29.2284H126.136V32.5005ZM123.667 29.2284L122.089 24.2076L120.497 29.2284H123.667Z" fill="white"/>
<path fill-rule="evenodd" clip-rule="evenodd" d="M131.243 28.8299H132.837C132.257 30.2629 131.243 30.9791 129.794 30.9791C128.837 30.9791 128.052 30.6674 127.44 30.0436C126.828 29.4195 126.522 28.6288 126.522 27.6709C126.522 26.7452 126.832 25.9603 127.452 25.3162C128.072 24.6725 128.844 24.3503 129.77 24.3503C130.479 24.3503 131.101 24.5355 131.636 24.9057C132.171 25.276 132.56 25.7953 132.801 26.4635C132.954 26.8819 133.03 27.4494 133.03 28.1659H128.043C128.212 29.1559 128.8 29.6511 129.807 29.6511C130.193 29.6511 130.483 29.6069 130.676 29.5183C130.934 29.3894 131.123 29.16 131.243 28.8299ZM131.485 27.0189C131.283 26.1334 130.72 25.6906 129.794 25.6906C128.893 25.6906 128.322 26.1334 128.08 27.0189H131.485Z" fill="white"/>
<path fill-rule="evenodd" clip-rule="evenodd" d="M140.637 27.7067C140.637 28.6004 140.347 29.3688 139.768 30.0129C139.188 30.6569 138.456 30.9788 137.57 30.9788C136.774 30.9788 136.11 30.6971 135.578 30.1338V33.4783H134.008V24.5433H135.542V25.3039C136.055 24.6841 136.719 24.3743 137.536 24.3743C138.466 24.3743 139.218 24.7002 139.796 25.3523C140.357 25.972 140.637 26.7569 140.637 27.7067ZM139.116 27.6826C139.116 27.1512 138.945 26.7024 138.603 26.3363C138.261 25.97 137.828 25.7868 137.305 25.7868C136.806 25.7868 136.387 25.972 136.049 26.3423C135.711 26.7125 135.542 27.1512 135.542 27.6585C135.542 28.1896 135.707 28.6405 136.037 29.0108C136.367 29.3811 136.794 29.5662 137.317 29.5662C137.816 29.5662 138.24 29.377 138.591 28.9988C138.941 28.6203 139.116 28.1816 139.116 27.6826Z" fill="white"/>
<path fill-rule="evenodd" clip-rule="evenodd" d="M150.188 24.5435L147.894 27.5742L150.213 30.798H148.365L146.325 27.7311V30.798H144.815V27.7311L142.787 30.798H140.927L143.246 27.5742L140.964 24.5435H142.702L144.815 27.5137V24.5435H146.325V27.5096L148.45 24.5435H150.188Z" fill="white"/>
<path fill-rule="evenodd" clip-rule="evenodd" d="M157.133 30.7981H155.611V30.0616C155.134 30.6652 154.478 30.9671 153.645 30.9671C152.723 30.9671 151.969 30.6491 151.383 30.0132C150.798 29.3773 150.504 28.5925 150.504 27.6589C150.504 26.7331 150.794 25.9524 151.373 25.3162C151.953 24.6804 152.701 24.3625 153.619 24.3625C154.464 24.3625 155.112 24.6481 155.563 25.2197V24.5436H157.133V30.7981ZM155.611 27.695C155.611 27.1639 155.438 26.711 155.092 26.3366C154.746 25.9625 154.311 25.7751 153.788 25.7751C153.273 25.7751 152.85 25.9603 152.52 26.3306C152.19 26.7009 152.025 27.1436 152.025 27.6589C152.025 28.1658 152.196 28.6106 152.538 28.9928C152.88 29.3755 153.305 29.5666 153.812 29.5666C154.303 29.5666 154.726 29.3773 155.08 28.9991C155.434 28.6207 155.611 28.186 155.611 27.695Z" fill="white"/>
<path fill-rule="evenodd" clip-rule="evenodd" d="M163.567 28.999C163.567 30.1982 162.73 30.798 161.056 30.798H158.447V24.5435H161.043C162.525 24.5435 163.265 25.1028 163.265 26.2218C163.265 26.7851 163.007 27.2039 162.492 27.4774V27.4897C163.209 27.7875 163.567 28.2904 163.567 28.999ZM161.72 26.3425C161.72 25.924 161.438 25.7145 160.874 25.7145H159.993V27.0669H160.838C161.426 27.0669 161.72 26.8254 161.72 26.3425ZM161.901 28.9265C161.901 28.4113 161.575 28.1537 160.923 28.1537H159.993V29.5905H160.995C161.599 29.5905 161.901 29.369 161.901 28.9265Z" fill="white"/>
<path fill-rule="evenodd" clip-rule="evenodd" d="M170.089 30.798H168.519V28.2261H166.177V30.798H164.607V24.5435H166.177V26.9944H168.519V24.5435H170.089V30.798Z" fill="white"/>
<path fill-rule="evenodd" clip-rule="evenodd" d="M175.81 28.8299H177.404C176.825 30.2629 175.81 30.9791 174.361 30.9791C173.403 30.9791 172.619 30.6674 172.007 30.0436C171.395 29.4195 171.089 28.6288 171.089 27.6709C171.089 26.7452 171.399 25.9603 172.019 25.3162C172.639 24.6725 173.412 24.3503 174.337 24.3503C175.046 24.3503 175.668 24.5355 176.203 24.9057C176.738 25.276 177.127 25.7953 177.368 26.4635C177.521 26.8819 177.597 27.4494 177.597 28.1659H172.611C172.78 29.1559 173.367 29.6511 174.373 29.6511C174.76 29.6511 175.05 29.6069 175.243 29.5183C175.5 29.3894 175.689 29.16 175.81 28.8299ZM176.052 27.0189C175.85 26.1334 175.287 25.6906 174.361 25.6906C173.46 25.6906 172.888 26.1334 172.647 27.0189H176.052Z" fill="white"/>
<path fill-rule="evenodd" clip-rule="evenodd" d="M187.74 30.798H186.17V25.8354H183.888V30.798H182.318V24.5435H187.74V30.798Z" fill="white"/>
<path fill-rule="evenodd" clip-rule="evenodd" d="M198.182 32.1139H196.854V30.798H193.111V32.1139H191.807V29.506H192.483L194.161 24.5435H195.815L197.494 29.506H198.182V32.1139ZM195.96 29.506L194.982 26.4028L194.016 29.506H195.96Z" fill="white"/>
<path fill-rule="evenodd" clip-rule="evenodd" d="M204.292 30.798H202.722V25.8354H200.44V30.798H198.87V24.5435H204.292V30.798Z" fill="white"/>
<path fill-rule="evenodd" clip-rule="evenodd" d="M212.225 27.7067C212.225 28.6004 211.935 29.3688 211.355 30.0129C210.776 30.6569 210.043 30.9788 209.158 30.9788C208.361 30.9788 207.697 30.6971 207.166 30.1338V33.4783H205.596V24.5433H207.129V25.3039C207.642 24.6841 208.307 24.3743 209.124 24.3743C210.053 24.3743 210.806 24.7002 211.383 25.3523C211.945 25.972 212.225 26.7569 212.225 27.7067ZM210.703 27.6826C210.703 27.1512 210.532 26.7024 210.19 26.3363C209.848 25.97 209.415 25.7868 208.892 25.7868C208.393 25.7868 207.974 25.972 207.636 26.3423C207.298 26.7125 207.129 27.1512 207.129 27.6585C207.129 28.1896 207.294 28.6405 207.624 29.0108C207.954 29.3811 208.381 29.5662 208.904 29.5662C209.403 29.5662 209.828 29.377 210.178 28.9988C210.528 28.6203 210.703 28.1816 210.703 27.6826Z" fill="white"/>
<path fill-rule="evenodd" clip-rule="evenodd" d="M218.95 30.798H217.38V26.8133L214.652 30.798H213.239V24.5435H214.808V28.4436L217.537 24.5435H218.95V30.798Z" fill="white"/>
<path fill-rule="evenodd" clip-rule="evenodd" d="M234.202 30.798H232.704L232.741 26.7652L231.111 30.798H230.024L228.406 26.7652L228.442 30.798H226.933V24.5435H228.962L230.568 28.8781L232.173 24.5435H234.202V30.798Z" fill="white"/>
<path fill-rule="evenodd" clip-rule="evenodd" d="M241.652 28.5402C241.467 29.3049 241.092 29.9025 240.529 30.3332C239.965 30.7639 239.285 30.9791 238.488 30.9791C237.531 30.9791 236.741 30.6673 236.122 30.0436C235.502 29.4195 235.192 28.6288 235.192 27.6708C235.192 26.6967 235.496 25.902 236.104 25.2861C236.712 24.6703 237.503 24.3625 238.476 24.3625C239.297 24.3625 239.981 24.5636 240.529 24.9662C241.101 25.3928 241.471 26.0005 241.64 26.7895H240.07C239.756 26.1131 239.209 25.7751 238.428 25.7751C237.889 25.7751 237.47 25.9542 237.172 26.3125C236.875 26.6707 236.726 27.1233 236.726 27.6708C236.726 28.2022 236.889 28.6507 237.215 29.0172C237.54 29.3834 237.965 29.5666 238.488 29.5666C239.293 29.5666 239.821 29.2245 240.07 28.5402H241.652Z" fill="white"/>
<path fill-rule="evenodd" clip-rule="evenodd" d="M246.506 25.8475H245.057V30.798H243.487V25.8475H242.038V24.5435H246.506V25.8475Z" fill="white"/>
<path fill-rule="evenodd" clip-rule="evenodd" d="M252.362 28.999C252.362 30.1982 251.525 30.798 249.851 30.798H247.243V24.5435H249.839C251.32 24.5435 252.06 25.1028 252.06 26.2218C252.06 26.7851 251.803 27.2039 251.287 27.4774V27.4897C252.004 27.7875 252.362 28.2904 252.362 28.999ZM250.515 26.3425C250.515 25.924 250.233 25.7145 249.67 25.7145H248.788V27.0669H249.633C250.221 27.0669 250.515 26.8254 250.515 26.3425ZM250.696 28.9265C250.696 28.4113 250.37 28.1537 249.718 28.1537H248.788V29.5905H249.79C250.394 29.5905 250.696 29.369 250.696 28.9265Z" fill="white"/>
<path fill-rule="evenodd" clip-rule="evenodd" d="M254.68 27.6709C254.68 28.2102 254.839 28.6549 255.157 29.0052C255.475 29.3553 255.904 29.5302 256.443 29.5302C256.982 29.5302 257.411 29.3553 257.729 29.0052C258.047 28.6549 258.206 28.2102 258.206 27.6709C258.206 27.1155 258.049 26.6626 257.735 26.3125C257.421 25.9625 256.99 25.7872 256.443 25.7872C255.904 25.7872 255.475 25.9644 255.157 26.3185C254.839 26.6727 254.68 27.1234 254.68 27.6709ZM259.812 27.6345C259.812 28.6166 259.496 29.4176 258.864 30.0373C258.232 30.6572 257.425 30.9671 256.443 30.9671C255.461 30.9671 254.654 30.6554 254.022 30.0313C253.39 29.4075 253.074 28.6086 253.074 27.6345C253.074 26.6848 253.398 25.8999 254.046 25.2801C254.694 24.6604 255.493 24.3503 256.443 24.3503C257.401 24.3503 258.202 24.6604 258.846 25.2801C259.49 25.8999 259.812 26.6848 259.812 27.6345Z" fill="white"/>
<path fill-rule="evenodd" clip-rule="evenodd" d="M189.259 23.6877V22.1543H190.915V23.6877H189.259ZM189.259 30.7976V24.5371H190.915V30.7976H189.259Z" fill="white"/>
<path fill-rule="evenodd" clip-rule="evenodd" d="M223.564 28.1456H221.836C221.892 28.6488 222.029 29.0251 222.248 29.2767C222.47 29.5283 222.774 29.655 223.164 29.655C223.78 29.655 224.158 29.321 224.295 28.6529L225.933 28.9526C225.529 30.2768 224.585 30.9389 223.098 30.9389C222.123 30.9389 221.377 30.6553 220.858 30.0857C220.338 29.514 220.079 28.7032 220.079 27.6506C220.079 26.6546 220.334 25.8636 220.846 25.276C221.357 24.6886 222.111 24.3945 223.11 24.3945C224.502 24.3945 225.396 24.9743 225.792 26.1353L224.176 26.4353C224.118 26.1837 223.979 25.9944 223.762 25.8697C223.542 25.7428 223.313 25.6804 223.069 25.6804C222.683 25.6804 222.385 25.8013 222.172 26.0428C221.96 26.2843 221.836 26.6485 221.801 27.1376H223.564V28.1456Z" fill="white"/>
<path fill-rule="evenodd" clip-rule="evenodd" d="M94.3537 26.6165H111.282V51.1578H113.79V60.9341H110.505V54.4425H92.1121V60.9341H88.8274V51.1578H90.9911C93.2328 47.7823 94.3537 40.9537 94.3537 30.6785V26.6165ZM107.596 29.9011H97.8975V31.3264C97.8975 33.6912 97.6902 36.9241 97.2626 41.0315C96.8413 45.1391 96.0056 48.5146 94.7683 51.1578H107.596V29.9011Z" fill="white"/>
<path fill-rule="evenodd" clip-rule="evenodd" d="M116.874 44.3618C116.874 40.6301 117.91 37.8637 119.99 36.0691C121.72 34.5788 123.832 33.8274 126.326 33.8274C129.099 33.8274 131.366 34.7343 133.122 36.555C134.884 38.3691 135.759 40.8764 135.759 44.0768C135.759 46.6748 135.371 48.7155 134.593 50.199C133.815 51.6891 132.682 52.8423 131.198 53.6652C129.708 54.4879 128.088 54.8963 126.326 54.8963C123.508 54.8963 121.227 53.9955 119.485 52.1817C117.742 50.3741 116.874 47.7695 116.874 44.3618ZM120.385 44.3618C120.385 46.9468 120.949 48.8775 122.076 50.1602C123.203 51.4495 124.622 52.0909 126.326 52.0909C128.024 52.0909 129.436 51.443 130.563 50.1538C131.684 48.8645 132.247 46.8948 132.247 44.2516C132.247 41.7573 131.684 39.8656 130.55 38.5829C129.417 37.2999 128.01 36.6584 126.326 36.6584C124.622 36.6584 123.203 37.2999 122.076 38.5763C120.949 39.8527 120.385 41.7833 120.385 44.3618Z" fill="white"/>
<path fill-rule="evenodd" clip-rule="evenodd" d="M139.75 34.2878H143.164V42.9952C144.253 42.9952 145.017 42.7878 145.451 42.3733C145.885 41.9519 146.527 40.7404 147.376 38.7258C148.049 37.132 148.594 36.0823 149.008 35.5771C149.429 35.0717 149.909 34.7281 150.453 34.5534C150.997 34.3718 151.872 34.2878 153.07 34.2878H153.757V37.1124L152.805 37.0929C151.911 37.0929 151.334 37.229 151.081 37.4947C150.816 37.7733 150.408 38.6025 149.863 39.9825C149.345 41.2978 148.872 42.2048 148.438 42.71C148.01 43.2219 147.343 43.6818 146.449 44.0966C147.913 44.4917 149.358 45.8587 150.777 48.1975L154.515 54.443H150.758L147.11 48.1975C146.365 46.9472 145.71 46.1178 145.16 45.7227C144.603 45.3208 143.935 45.1266 143.164 45.1266V54.443H139.75V34.2878Z" fill="white"/>
<path fill-rule="evenodd" clip-rule="evenodd" d="M157.055 62.2047L156.672 58.9974C157.424 59.1985 158.071 59.302 158.629 59.302C159.387 59.302 159.996 59.1725 160.449 58.9197C160.909 58.6671 161.279 58.3173 161.57 57.8572C161.79 57.5204 162.134 56.6718 162.613 55.3177C162.678 55.1231 162.781 54.8511 162.918 54.4818L155.273 34.2878H158.953L163.151 45.956C163.689 47.4395 164.181 48.9944 164.609 50.627C165.004 49.0592 165.47 47.5303 166.015 46.0335L170.323 34.2878H173.737L166.073 54.7863C165.25 57.0021 164.609 58.5246 164.155 59.3603C163.546 60.4878 162.853 61.3105 162.069 61.8353C161.279 62.3599 160.346 62.6257 159.258 62.6257C158.596 62.6257 157.864 62.4832 157.055 62.2047Z" fill="white"/>
<path fill-rule="evenodd" clip-rule="evenodd" d="M176.303 34.2878H181.615L186.915 50.4196L192.797 34.2878H197.715V54.443H194.3V38.2139L188.34 54.443H185.282L179.646 37.4365V54.443H176.303V34.2878Z" fill="white"/>
<path fill-rule="evenodd" clip-rule="evenodd" d="M216.73 47.9511L220.261 48.3852C219.704 50.4518 218.674 52.0519 217.171 53.1921C215.661 54.3261 213.737 54.8963 211.398 54.8963C208.45 54.8963 206.111 53.9891 204.388 52.1752C202.658 50.3611 201.797 47.815 201.797 44.5366C201.797 41.1419 202.671 38.5116 204.414 36.6392C206.163 34.7669 208.425 33.8274 211.21 33.8274C213.905 33.8274 216.108 34.7473 217.812 36.581C219.522 38.4144 220.378 40.9994 220.378 44.3228C220.378 44.5301 220.371 44.8347 220.358 45.2365H205.328C205.451 47.4522 206.079 49.1496 207.206 50.3223C208.334 51.5013 209.733 52.0909 211.418 52.0909C212.668 52.0909 213.737 51.7603 214.625 51.0997C215.512 50.4454 216.212 49.3957 216.73 47.9511ZM205.515 42.4246H216.769C216.62 40.7336 216.186 39.4573 215.48 38.6152C214.391 37.2999 212.979 36.6392 211.249 36.6392C209.681 36.6392 208.359 37.1638 207.291 38.2135C206.222 39.263 205.632 40.6688 205.515 42.4246Z" fill="white"/>
<path fill-rule="evenodd" clip-rule="evenodd" d="M224.569 34.2878H227.99V42.6776H237.462V34.2878H240.876V54.443H237.462V45.5024H227.99V54.443H224.569V34.2878Z" fill="white"/>
<path fill-rule="evenodd" clip-rule="evenodd" d="M244.174 34.2878H260.559V37.1124H254.067V54.443H250.666V37.1124H244.174V34.2878Z" fill="white"/>
<path fill-rule="evenodd" clip-rule="evenodd" d="M35.7289 0C25.8646 0 16.9319 4.10591 10.466 10.7427C4.00018 17.379 -0.000244141 26.5481 -0.000244141 36.6725C-0.000244141 46.7971 4.00018 55.9657 10.466 62.6025C16.9319 69.2393 25.8646 73.3452 35.7289 73.3452C45.5928 73.3452 54.5257 69.2393 60.9916 62.6025C67.4576 55.9657 71.4579 46.7971 71.4579 36.6725C71.4579 26.5481 67.4576 17.379 60.9916 10.7427C54.5257 4.10591 45.5928 0 35.7289 0ZM35.7289 1.08368C54.8785 1.08368 70.4024 17.0171 70.4024 36.6722C70.4024 56.3276 54.8785 72.2613 35.7289 72.2613C16.5794 72.2613 1.05549 56.3276 1.05549 36.6722C1.05549 17.0171 16.5794 1.08368 35.7289 1.08368Z" fill="white"/>
<path fill-rule="evenodd" clip-rule="evenodd" d="M35.7288 1.99731C54.386 1.99731 69.5112 17.5217 69.5112 36.672C69.5112 55.822 54.386 71.3462 35.7288 71.3462C17.0711 71.3462 1.94641 55.822 1.94641 36.672C1.94641 17.5217 17.0711 1.99731 35.7288 1.99731ZM35.7288 2.6649C54.0268 2.6649 68.8605 17.8903 68.8605 36.672C68.8605 55.4531 54.0268 70.6785 35.7288 70.6785C17.4306 70.6785 2.59718 55.4531 2.59718 36.672C2.59718 17.8903 17.4306 2.6649 35.7288 2.6649Z" fill="white"/>
<path fill-rule="evenodd" clip-rule="evenodd" d="M35.7289 3.74805C44.5845 3.74805 52.6037 7.43336 58.408 13.3917C64.2132 19.3498 67.8043 27.5811 67.8043 36.6722C67.8043 45.7626 64.2132 53.9944 58.408 59.9529C52.6035 65.9108 44.5845 69.5963 35.7289 69.5963C26.8733 69.5963 18.8543 65.9108 13.0496 59.9529C7.24439 53.9944 3.65344 45.7626 3.65344 36.6722C3.65344 27.5811 7.24439 19.3498 13.0496 13.3917C18.8538 7.43336 26.8733 3.74805 35.7289 3.74805ZM57.9151 13.9022C52.2385 8.0753 44.3939 4.47033 35.7289 4.47033C27.064 4.47033 19.2191 8.0753 13.5422 13.9022C7.86577 19.7285 4.35432 27.7793 4.35432 36.6722C4.35432 45.5649 7.86577 53.6159 13.5422 59.4425C19.2193 65.2692 27.0642 68.8738 35.7289 68.8738C44.3939 68.8738 52.2385 65.2692 57.9151 59.4425C63.592 53.6159 67.1032 45.5649 67.1032 36.6722C67.1032 27.7793 63.592 19.7285 57.9151 13.9022Z" fill="white"/>
<path fill-rule="evenodd" clip-rule="evenodd" d="M34.3666 2.32178C34.654 2.32178 34.8873 2.56138 34.8873 2.85679C34.8873 3.15193 34.654 3.39145 34.3666 3.39145C34.0787 3.39145 33.8456 3.15193 33.8456 2.85679C33.8456 2.56138 34.0787 2.32178 34.3666 2.32178ZM33.0065 2.41037C33.2938 2.41037 33.5278 2.64997 33.5278 2.94563C33.5278 3.24078 33.2938 3.48029 33.0065 3.48029C32.719 3.48029 32.4853 3.24078 32.4853 2.94563C32.4853 2.64997 32.719 2.41037 33.0065 2.41037ZM31.6505 2.5534C31.9383 2.5534 32.1715 2.79317 32.1715 3.0884C32.1715 3.38406 31.9383 3.62307 31.6505 3.62307C31.3626 3.62307 31.1296 3.38406 31.1296 3.0884C31.1296 2.79317 31.3626 2.5534 31.6505 2.5534ZM30.3014 2.75079C30.5888 2.75079 30.8218 2.99013 30.8218 3.28579C30.8218 3.58119 30.5888 3.82096 30.3014 3.82096C30.0132 3.82096 29.7801 3.58119 29.7801 3.28579C29.7801 2.99013 30.0132 2.75079 30.3014 2.75079ZM28.9603 3.00364C29.248 3.00364 29.4816 3.24315 29.4816 3.53881C29.4816 3.83379 29.248 4.07356 28.9603 4.07356C28.6724 4.07356 28.4393 3.83379 28.4393 3.53881C28.4393 3.24315 28.6724 3.00364 28.9603 3.00364ZM27.6323 3.31807C27.9195 3.31807 28.153 3.55758 28.153 3.85324C28.153 4.14847 27.9195 4.38824 27.6323 4.38824C27.3444 4.38824 27.111 4.14847 27.111 3.85324C27.111 3.55758 27.3444 3.31807 27.6323 3.31807ZM26.3189 3.69314C26.6062 3.69314 26.8399 3.93299 26.8399 4.22814C26.8399 4.5238 26.6062 4.76306 26.3189 4.76306C26.0314 4.76306 25.7977 4.5238 25.7977 4.22814C25.7977 3.93299 26.0314 3.69314 26.3189 3.69314ZM25.0215 4.12146C25.3087 4.12146 25.5425 4.36123 25.5425 4.65672C25.5425 4.95187 25.3087 5.19138 25.0215 5.19138C24.7338 5.19138 24.5002 4.95187 24.5002 4.65672C24.5002 4.36123 24.7338 4.12146 25.0215 4.12146ZM23.7419 4.60347C24.0295 4.60347 24.2631 4.84281 24.2631 5.13847C24.2631 5.43387 24.0295 5.67364 23.7419 5.67364C23.4544 5.67364 23.2211 5.43387 23.2211 5.13847C23.2211 4.84281 23.4544 4.60347 23.7419 4.60347ZM22.4822 5.13771C22.7701 5.13771 23.0034 5.37731 23.0034 5.67296C23.0034 5.96811 22.7701 6.20763 22.4822 6.20763C22.1945 6.20763 21.9612 5.96811 21.9612 5.67296C21.9612 5.37731 22.1945 5.13771 22.4822 5.13771ZM21.2447 5.72375C21.5319 5.72375 21.7659 5.96302 21.7659 6.25867C21.7659 6.55365 21.5319 6.79342 21.2447 6.79342C20.9568 6.79342 20.7237 6.55365 20.7237 6.25867C20.7237 5.96302 20.9568 5.72375 21.2447 5.72375ZM20.0312 6.36153C20.319 6.36153 20.5521 6.60105 20.5521 6.89696C20.5521 7.19185 20.319 7.43171 20.0312 7.43171C19.7438 7.43171 19.5102 7.19185 19.5102 6.89696C19.5102 6.60105 19.7438 6.36153 20.0312 6.36153ZM18.8487 7.05799C19.1364 7.05799 19.3697 7.29785 19.3697 7.593C19.3697 7.8884 19.1364 8.12774 18.8487 8.12774C18.5614 8.12774 18.3276 7.8884 18.3276 7.593C18.3276 7.29785 18.5614 7.05799 18.8487 7.05799ZM17.6949 7.80296C17.9826 7.80296 18.2157 8.04247 18.2157 8.33787C18.2157 8.63285 17.9826 8.87262 17.6949 8.87262C17.4068 8.87262 17.1737 8.63285 17.1737 8.33787C17.1737 8.04247 17.4068 7.80296 17.6949 7.80296ZM16.5708 8.59429C16.8581 8.59429 17.0918 8.83364 17.0918 9.12929C17.0918 9.4247 16.8581 9.66404 16.5708 9.66404C16.2832 9.66404 16.0498 9.4247 16.0498 9.12929C16.0498 8.83364 16.2832 8.59429 16.5708 8.59429ZM15.4787 9.43115C15.7662 9.43115 15.9997 9.67101 15.9997 9.96641C15.9997 10.2616 15.7662 10.5012 15.4787 10.5012C15.1911 10.5012 14.9575 10.2616 14.9575 9.96641C14.9575 9.67101 15.1911 9.43115 15.4787 9.43115ZM14.4204 10.3123C14.7076 10.3123 14.9416 10.5519 14.9416 10.8478C14.9416 11.1428 14.7076 11.3825 14.4204 11.3825C14.1324 11.3825 13.8994 11.1428 13.8994 10.8478C13.8994 10.5519 14.1324 10.3123 14.4204 10.3123ZM13.3969 11.2369C13.6846 11.2369 13.9176 11.4762 13.9176 11.7716C13.9176 12.0668 13.6846 12.3064 13.3969 12.3064C13.1087 12.3064 12.8759 12.0668 12.8759 11.7716C12.8759 11.4762 13.1087 11.2369 13.3969 11.2369ZM12.4098 12.2023C12.6977 12.2023 12.9308 12.4419 12.9308 12.7373C12.9308 13.0327 12.6977 13.2721 12.4098 13.2721C12.1223 13.2721 11.8888 13.0327 11.8888 12.7373C11.8888 12.4419 12.1223 12.2023 12.4098 12.2023ZM11.4691 13.215C11.7573 13.215 11.9904 13.4548 11.9904 13.7499C11.9904 14.0453 11.7573 14.2847 11.4691 14.2847C11.1816 14.2847 10.9482 14.0453 10.9482 13.7499C10.9482 13.4548 11.1816 13.215 11.4691 13.215ZM10.5692 14.2656C10.8569 14.2656 11.0904 14.505 11.0904 14.8006C11.0904 15.0955 10.8569 15.3353 10.5692 15.3353C10.2813 15.3353 10.0479 15.0955 10.0479 14.8006C10.0479 14.505 10.2813 14.2656 10.5692 14.2656ZM9.71041 15.3517C9.99782 15.3517 10.2309 15.5913 10.2309 15.8869C10.2309 16.1821 9.99782 16.4219 9.71041 16.4219C9.4229 16.4219 9.18916 16.1821 9.18916 15.8869C9.18916 15.5913 9.4229 15.3517 9.71041 15.3517ZM8.89563 16.4729C9.18313 16.4729 9.41645 16.7125 9.41645 17.0077C9.41645 17.3028 9.18313 17.5424 8.89563 17.5424C8.60795 17.5424 8.37396 17.3028 8.37396 17.0077C8.37396 16.7125 8.60795 16.4729 8.89563 16.4729ZM8.124 17.6262C8.41176 17.6262 8.64482 17.8659 8.64482 18.1616C8.64482 18.4568 8.41176 18.6961 8.124 18.6961C7.83658 18.6961 7.60275 18.4568 7.60275 18.1616C7.60275 17.8659 7.83658 17.6262 8.124 17.6262ZM7.3984 18.8109C7.68633 18.8109 7.91964 19.0508 7.91964 19.3459C7.91964 19.6411 7.68633 19.8807 7.3984 19.8807C7.11115 19.8807 6.87784 19.6411 6.87784 19.3459C6.87784 19.0508 7.11115 18.8109 7.3984 18.8109ZM6.72037 20.0246C7.00787 20.0246 7.24093 20.2639 7.24093 20.5595C7.24093 20.8545 7.00787 21.0943 6.72037 21.0943C6.43244 21.0943 6.19912 20.8545 6.19912 20.5595C6.19912 20.2639 6.43244 20.0246 6.72037 20.0246ZM6.09831 21.2698C6.38623 21.2698 6.6193 21.5094 6.6193 21.805C6.6193 22.1002 6.38623 22.3395 6.09831 22.3395C5.8108 22.3395 5.57723 22.1002 5.57723 21.805C5.57723 21.5094 5.8108 21.2698 6.09831 21.2698ZM5.52721 22.5403C5.81462 22.5403 6.04845 22.7798 6.04845 23.0755C6.04845 23.3707 5.81462 23.6102 5.52721 23.6102C5.2397 23.6102 5.00596 23.3707 5.00596 23.0755C5.00596 22.7798 5.2397 22.5403 5.52721 22.5403ZM5.00664 23.8332C5.2944 23.8332 5.52789 24.0729 5.52789 24.3682C5.52789 24.6633 5.2944 24.9028 5.00664 24.9028C4.71922 24.9028 4.48616 24.6633 4.48616 24.3682C4.48616 24.0729 4.71922 23.8332 5.00664 23.8332ZM4.53721 25.1468C4.82539 25.1468 5.05845 25.3861 5.05845 25.6817C5.05845 25.9769 4.82539 26.2164 4.53721 26.2164C4.24996 26.2164 4.01664 25.9769 4.01664 25.6817C4.01664 25.3861 4.24996 25.1468 4.53721 25.1468ZM4.12043 26.4784C4.40768 26.4784 4.64117 26.7177 4.64117 27.0134C4.64117 27.3083 4.40768 27.5481 4.12043 27.5481C3.83251 27.5481 3.59919 27.3083 3.59919 27.0134C3.59919 26.7177 3.83251 26.4784 4.12043 26.4784ZM3.75496 27.8262C4.04221 27.8262 4.27595 28.0657 4.27595 28.3614C4.27595 28.6564 4.04221 28.8961 3.75496 28.8961C3.46703 28.8961 3.23372 28.6564 3.23372 28.3614C3.23372 28.0657 3.46703 27.8262 3.75496 27.8262ZM3.44801 29.1896C3.73543 29.1896 3.96925 29.4292 3.96925 29.7246C3.96925 30.0195 3.73543 30.2593 3.44801 30.2593C3.16025 30.2593 2.92676 30.0195 2.92676 29.7246C2.92676 29.4292 3.16025 29.1896 3.44801 29.1896ZM3.20221 30.566C3.48988 30.566 3.7232 30.8055 3.7232 31.101C3.7232 31.3964 3.48988 31.6357 3.20221 31.6357C2.91445 31.6357 2.68096 31.3964 2.68096 31.101C2.68096 30.8055 2.91445 30.566 3.20221 30.566ZM3.00983 31.9506C3.29725 31.9506 3.53031 32.1904 3.53031 32.4861C3.53031 32.7813 3.29725 33.0206 3.00983 33.0206C2.72207 33.0206 2.48859 32.7813 2.48859 32.4861C2.48859 32.1904 2.72207 31.9506 3.00983 31.9506ZM2.8702 33.3425C3.15813 33.3425 3.39119 33.5821 3.39119 33.8776C3.39119 34.1726 3.15813 34.4121 2.8702 34.4121C2.58295 34.4121 2.34895 34.1726 2.34895 33.8776C2.34895 33.5821 2.58295 33.3425 2.8702 33.3425ZM2.78373 34.7389C3.07098 34.7389 3.30472 34.9782 3.30472 35.2736C3.30472 35.5688 3.07098 35.8084 2.78373 35.8084C2.49606 35.8084 2.26249 35.5688 2.26249 35.2736C2.26249 34.9782 2.49606 34.7389 2.78373 34.7389ZM2.74933 36.1372C3.03726 36.1372 3.27032 36.3765 3.27032 36.6721C3.27032 36.9673 3.03726 37.2069 2.74933 37.2069C2.46209 37.2069 2.22852 36.9673 2.22852 36.6721C2.22852 36.3765 2.46209 36.1372 2.74933 36.1372ZM2.78399 37.536C3.07166 37.536 3.30498 37.7755 3.30498 38.0712C3.30498 38.3664 3.07166 38.6059 2.78399 38.6059C2.49648 38.6059 2.26274 38.3664 2.26274 38.0712C2.26274 37.7755 2.49648 37.536 2.78399 37.536ZM2.8702 38.9324C3.15813 38.9324 3.39144 39.1718 3.39144 39.4672C3.39144 39.7628 3.15813 40.0021 2.8702 40.0021C2.58295 40.0021 2.34963 39.7628 2.34963 39.4672C2.34963 39.1718 2.58295 38.9324 2.8702 38.9324ZM3.01008 40.324C3.29801 40.324 3.53107 40.5633 3.53107 40.859C3.53107 41.1544 3.29801 41.3937 3.01008 41.3937C2.72207 41.3937 2.48859 41.1544 2.48859 40.859C2.48859 40.5633 2.72207 40.324 3.01008 40.324ZM3.20195 41.7089C3.48962 41.7089 3.7232 41.9482 3.7232 42.2439C3.7232 42.5387 3.48962 42.7785 3.20195 42.7785C2.91445 42.7785 2.68096 42.5387 2.68096 42.2439C2.68096 41.9482 2.91445 41.7089 3.20195 41.7089ZM3.44801 43.0845C3.73568 43.0845 3.96951 43.3243 3.96951 43.62C3.96951 43.9152 3.73568 44.1547 3.44801 44.1547C3.16025 44.1547 2.92676 43.9152 2.92676 43.62C2.92676 43.3243 3.16025 43.0845 3.44801 43.0845ZM3.75496 44.4482C4.04221 44.4482 4.27595 44.688 4.27595 44.9837C4.27595 45.2788 4.04221 45.5184 3.75496 45.5184C3.46703 45.5184 3.23372 45.2788 3.23372 44.9837C3.23372 44.688 3.46703 44.4482 3.75496 44.4482ZM4.12043 45.7965C4.40811 45.7965 4.64117 46.036 4.64117 46.3314C4.64117 46.6268 4.40811 46.8662 4.12043 46.8662C3.83251 46.8662 3.59919 46.6268 3.59919 46.3314C3.59919 46.036 3.83251 45.7965 4.12043 45.7965ZM4.53721 47.1281C4.82539 47.1281 5.05845 47.3677 5.05845 47.6633C5.05845 47.9585 4.82539 48.198 4.53721 48.198C4.24996 48.198 4.01664 47.9585 4.01664 47.6633C4.01664 47.3677 4.24996 47.1281 4.53721 47.1281ZM5.00715 48.4415C5.2944 48.4415 5.52814 48.6811 5.52814 48.9765C5.52814 49.2719 5.2944 49.5116 5.00715 49.5116C4.71922 49.5116 4.48616 49.2719 4.48616 48.9765C4.48616 48.6811 4.71922 48.4415 5.00715 48.4415ZM5.52746 49.7346C5.81513 49.7346 6.0487 49.9739 6.0487 50.2693C6.0487 50.5645 5.81513 50.804 5.52746 50.804C5.23996 50.804 5.00664 50.5645 5.00664 50.2693C5.00664 49.9739 5.23996 49.7346 5.52746 49.7346ZM6.09924 51.0046C6.38649 51.0046 6.6193 51.2441 6.6193 51.5398C6.6193 51.8348 6.38649 52.0745 6.09924 52.0745C5.81106 52.0745 5.57774 51.8348 5.57774 51.5398C5.57774 51.2441 5.81106 51.0046 6.09924 51.0046ZM6.72037 52.2503C7.00813 52.2503 7.24119 52.4899 7.24119 52.785C7.24119 53.0804 7.00813 53.3198 6.72037 53.3198C6.43244 53.3198 6.19963 53.0804 6.19963 52.785C6.19963 52.4899 6.43244 52.2503 6.72037 52.2503ZM7.39908 53.4637C7.68658 53.4637 7.91964 53.703 7.91964 53.9991C7.91964 54.294 7.68658 54.5339 7.39908 54.5339C7.11115 54.5339 6.87784 54.294 6.87784 53.9991C6.87784 53.703 7.11115 53.4637 7.39908 53.4637ZM8.12476 54.6485C8.41218 54.6485 8.64575 54.8878 8.64575 55.1835C8.64575 55.4789 8.41218 55.7181 8.12476 55.7181C7.83658 55.7181 7.60326 55.4789 7.60326 55.1835C7.60326 54.8878 7.83658 54.6485 8.12476 54.6485ZM8.89563 55.802C9.18313 55.802 9.41645 56.0412 9.41645 56.3369C9.41645 56.6324 9.18313 56.8716 8.89563 56.8716C8.60795 56.8716 8.37464 56.6324 8.37464 56.3369C8.37464 56.0412 8.60795 55.802 8.89563 55.802ZM9.71109 56.9224C9.99859 56.9224 10.2316 57.1623 10.2316 57.4574C10.2316 57.7528 9.99859 57.9922 9.71109 57.9922C9.4229 57.9922 9.18916 57.7528 9.18916 57.4574C9.18916 57.1623 9.4229 56.9224 9.71109 56.9224ZM10.5692 58.009C10.8564 58.009 11.0899 58.2488 11.0899 58.544C11.0899 58.8397 10.8564 59.0792 10.5692 59.0792C10.2813 59.0792 10.0479 58.8397 10.0479 58.544C10.0479 58.2488 10.2813 58.009 10.5692 58.009ZM11.4694 59.0596C11.7573 59.0596 11.9906 59.299 11.9906 59.5946C11.9906 59.8898 11.7573 60.1296 11.4694 60.1296C11.1816 60.1296 10.9482 59.8898 10.9482 59.5946C10.9482 59.299 11.1816 59.0596 11.4694 59.0596ZM12.4101 60.0726C12.6977 60.0726 12.931 60.3118 12.931 60.6075C12.931 60.9025 12.6977 61.1422 12.4101 61.1422C12.1228 61.1422 11.8892 60.9025 11.8892 60.6075C11.8892 60.3118 12.1228 60.0726 12.4101 60.0726ZM13.3969 61.038C13.6851 61.038 13.9182 61.2775 13.9182 61.5732C13.9182 61.8683 13.6851 62.1077 13.3969 62.1077C13.1087 62.1077 12.8759 61.8683 12.8759 61.5732C12.8759 61.2775 13.1087 61.038 13.3969 61.038ZM14.4206 61.9623C14.708 61.9623 14.9416 62.2016 14.9416 62.497C14.9416 62.7922 14.708 63.0315 14.4206 63.0315C14.1329 63.0315 13.8994 62.7922 13.8994 62.497C13.8994 62.2016 14.1329 61.9623 14.4206 61.9623ZM15.4787 62.8432C15.7667 62.8432 16 63.0827 16 63.3786C16 63.6736 15.7667 63.9134 15.4787 63.9134C15.1911 63.9134 14.958 63.6736 14.958 63.3786C14.958 63.0827 15.1911 62.8432 15.4787 62.8432ZM16.5713 63.6806C16.859 63.6806 17.0923 63.9201 17.0923 64.2158C17.0923 64.5107 16.859 64.7505 16.5713 64.7505C16.2836 64.7505 16.0498 64.5107 16.0498 64.2158C16.0498 63.9201 16.2836 63.6806 16.5713 63.6806ZM17.6949 64.4719C17.9826 64.4719 18.2162 64.7115 18.2162 65.0069C18.2162 65.3023 17.9826 65.5417 17.6949 65.5417C17.407 65.5417 17.174 65.3023 17.174 65.0069C17.174 64.7115 17.407 64.4719 17.6949 64.4719ZM18.8496 65.2161C19.1369 65.2161 19.3699 65.4557 19.3699 65.7515C19.3699 66.0465 19.1369 66.2863 18.8496 66.2863C18.5617 66.2863 18.3279 66.0465 18.3279 65.7515C18.3279 65.4557 18.5617 65.2161 18.8496 65.2161ZM20.0312 65.9129C20.319 65.9129 20.5521 66.1527 20.5521 66.4481C20.5521 66.7432 20.319 66.9828 20.0312 66.9828C19.7438 66.9828 19.5102 66.7432 19.5102 66.4481C19.5102 66.1527 19.7438 65.9129 20.0312 65.9129ZM21.245 66.5509C21.5324 66.5509 21.7662 66.7907 21.7662 67.0859C21.7662 67.3815 21.5324 67.621 21.245 67.621C20.9568 67.621 20.7237 67.3815 20.7237 67.0859C20.7237 66.7907 20.9568 66.5509 21.245 66.5509ZM22.4824 67.1367C22.7706 67.1367 23.0034 67.3764 23.0034 67.6721C23.0034 67.9673 22.7706 68.2068 22.4824 68.2068C22.1949 68.2068 21.9615 67.9673 21.9615 67.6721C21.9615 67.3764 22.1949 67.1367 22.4824 67.1367ZM23.7421 67.6712C24.0298 67.6712 24.2634 67.9109 24.2634 68.2062C24.2634 68.5016 24.0298 68.7408 23.7421 68.7408C23.4544 68.7408 23.2211 68.5016 23.2211 68.2062C23.2211 67.9109 23.4544 67.6712 23.7421 67.6712ZM25.0215 68.1529C25.3094 68.1529 25.5427 68.3925 25.5427 68.6882C25.5427 68.9833 25.3094 69.2231 25.0215 69.2231C24.7338 69.2231 24.5008 68.9833 24.5008 68.6882C24.5008 68.3925 24.7338 68.1529 25.0215 68.1529ZM26.3192 68.5815C26.6069 68.5815 26.8402 68.8207 26.8402 69.1164C26.8402 69.4114 26.6069 69.6512 26.3192 69.6512C26.0314 69.6512 25.7977 69.4114 25.7977 69.1164C25.7977 68.8207 26.0314 68.5815 26.3192 68.5815ZM27.6323 68.9568C27.9195 68.9568 28.153 69.1962 28.153 69.4916C28.153 69.7867 27.9195 70.0263 27.6323 70.0263C27.3444 70.0263 27.111 69.7867 27.111 69.4916C27.111 69.1962 27.3444 68.9568 27.6323 68.9568ZM28.9606 69.2712C29.248 69.2712 29.4818 69.5106 29.4818 69.8062C29.4818 70.1016 29.248 70.3409 28.9606 70.3409C28.6733 70.3409 28.4393 70.1016 28.4393 69.8062C28.4393 69.5106 28.6733 69.2712 28.9606 69.2712ZM30.3016 69.524C30.5895 69.524 30.8226 69.7636 30.8226 70.0588C30.8226 70.3542 30.5895 70.5935 30.3016 70.5935C30.0139 70.5935 29.7804 70.3542 29.7804 70.0588C29.7804 69.7636 30.0139 69.524 30.3016 69.524ZM31.6505 69.7212C31.9383 69.7212 32.1715 69.9606 32.1715 70.2562C32.1715 70.5514 31.9383 70.7909 31.6505 70.7909C31.3626 70.7909 31.1296 70.5514 31.1296 70.2562C31.1296 69.9606 31.3626 69.7212 31.6505 69.7212ZM33.0068 69.8645C33.2945 69.8645 33.5278 70.1038 33.5278 70.3994C33.5278 70.6944 33.2945 70.9342 33.0068 70.9342C32.719 70.9342 32.4853 70.6944 32.4853 70.3994C32.4853 70.1038 32.719 69.8645 33.0068 69.8645ZM34.3668 69.9528C34.6543 69.9528 34.8878 70.1924 34.8878 70.4883C34.8878 70.7832 34.6543 71.023 34.3668 71.023C34.0787 71.023 33.8456 70.7832 33.8456 70.4883C33.8456 70.1924 34.0787 69.9528 34.3668 69.9528ZM35.7302 69.9877C36.0177 69.9877 36.2508 70.2275 36.2508 70.5229C36.2508 70.8182 36.0177 71.0577 35.7302 71.0577C35.4423 71.0577 35.209 70.8182 35.209 70.5229C35.209 70.2275 35.4423 69.9877 35.7302 69.9877ZM37.0925 69.9528C37.3799 69.9528 37.6137 70.1924 37.6137 70.4878C37.6137 70.7832 37.3799 71.0225 37.0925 71.0225C36.8052 71.0225 36.5717 70.7832 36.5717 70.4878C36.5717 70.1924 36.8052 69.9528 37.0925 69.9528ZM38.4535 69.864C38.7407 69.864 38.9738 70.1035 38.9738 70.3992C38.9738 70.6942 38.7407 70.9339 38.4535 70.9339C38.1653 70.9339 37.9322 70.6942 37.9322 70.3992C37.9322 70.1035 38.1653 69.864 38.4535 69.864ZM39.8087 69.7207C40.0962 69.7207 40.3297 69.9606 40.3297 70.256C40.3297 70.5514 40.0962 70.7909 39.8087 70.7909C39.521 70.7909 39.2874 70.5514 39.2874 70.256C39.2874 69.9606 39.521 69.7207 39.8087 69.7207ZM41.1577 69.5238C41.4459 69.5238 41.6789 69.7631 41.6789 70.0585C41.6789 70.3537 41.4459 70.5932 41.1577 70.5932C40.8705 70.5932 40.6365 70.3537 40.6365 70.0585C40.6365 69.7631 40.8705 69.5238 41.1577 69.5238ZM42.4987 69.2712C42.7864 69.2712 43.02 69.5106 43.02 69.8062C43.02 70.1011 42.7864 70.3407 42.4987 70.3407C42.211 70.3407 41.9775 70.1011 41.9775 69.8062C41.9775 69.5106 42.211 69.2712 42.4987 69.2712ZM43.8272 68.9563C44.1147 68.9563 44.3478 69.1959 44.3478 69.4911C44.3478 69.7865 44.1147 70.0258 43.8272 70.0258C43.5395 70.0258 43.306 69.7865 43.306 69.4911C43.306 69.1959 43.5395 68.9563 43.8272 68.9563ZM45.1408 68.5812C45.428 68.5812 45.6615 68.8206 45.6615 69.1162C45.6615 69.4114 45.428 69.6512 45.1408 69.6512C44.8524 69.6512 44.6196 69.4114 44.6196 69.1162C44.6196 68.8206 44.8524 68.5812 45.1408 68.5812ZM46.4373 68.1527C46.725 68.1527 46.9583 68.3925 46.9583 68.6882C46.9583 68.9833 46.725 69.2228 46.4373 69.2228C46.1498 69.2228 45.9165 68.9833 45.9165 68.6882C45.9165 68.3925 46.1498 68.1527 46.4373 68.1527ZM47.7172 67.6706C48.0049 67.6706 48.2382 67.9105 48.2382 68.2059C48.2382 68.5011 48.0049 68.7407 47.7172 68.7407C47.4294 68.7407 47.1957 68.5011 47.1957 68.2059C47.1957 67.9105 47.4294 67.6706 47.7172 67.6706ZM48.9766 67.1367C49.2643 67.1367 49.4979 67.3764 49.4979 67.6719C49.4979 67.9671 49.2643 68.2066 48.9766 68.2066C48.6889 68.2066 48.4554 67.9671 48.4554 67.6719C48.4554 67.3764 48.6889 67.1367 48.9766 67.1367ZM50.2148 66.5509C50.5023 66.5509 50.736 66.7905 50.736 67.0856C50.736 67.3813 50.5023 67.6206 50.2148 67.6206C49.9269 67.6206 49.6938 67.3813 49.6938 67.0856C49.6938 66.7905 49.9269 66.5509 50.2148 66.5509ZM51.428 65.9127C51.7157 65.9127 51.949 66.1524 51.949 66.4476C51.949 66.743 51.7157 66.9823 51.428 66.9823C51.1401 66.9823 50.9068 66.743 50.9068 66.4476C50.9068 66.1524 51.1401 65.9127 51.428 65.9127ZM52.6104 65.2161C52.8983 65.2161 53.1316 65.4557 53.1316 65.7511C53.1316 66.046 52.8983 66.2858 52.6104 66.2858C52.3222 66.2858 52.0891 66.046 52.0891 65.7511C52.0891 65.4557 52.3222 65.2161 52.6104 65.2161ZM53.7643 64.4719C54.0518 64.4719 54.2851 64.7115 54.2851 65.0067C54.2851 65.3018 54.0518 65.5414 53.7643 65.5414C53.4769 65.5414 53.243 65.3018 53.243 65.0067C53.243 64.7115 53.4769 64.4719 53.7643 64.4719ZM54.888 63.6803C55.1762 63.6803 55.4092 63.9197 55.4092 64.2153C55.4092 64.5107 55.1762 64.75 54.888 64.75C54.6002 64.75 54.3672 64.5107 54.3672 64.2153C54.3672 63.9197 54.6002 63.6803 54.888 63.6803ZM55.9805 62.843C56.2682 62.843 56.5013 63.0823 56.5013 63.3784C56.5013 63.6734 56.2682 63.9129 55.9805 63.9129C55.6926 63.9129 55.4592 63.6734 55.4592 63.3784C55.4592 63.0823 55.6926 62.843 55.9805 62.843ZM57.0387 61.9623C57.3266 61.9623 57.5599 62.2016 57.5599 62.497C57.5599 62.7922 57.3266 63.0315 57.0387 63.0315C56.7512 63.0315 56.5179 62.7922 56.5179 62.497C56.5179 62.2016 56.7512 61.9623 57.0387 61.9623ZM58.0628 61.038C58.3503 61.038 58.5838 61.2775 58.5838 61.5732C58.5838 61.8683 58.3503 62.1077 58.0628 62.1077C57.7749 62.1077 57.5409 61.8683 57.5409 61.5732C57.5409 61.2775 57.7749 61.038 58.0628 61.038ZM59.0493 60.0726C59.3367 60.0726 59.57 60.3118 59.57 60.6075C59.57 60.9025 59.3367 61.1422 59.0493 61.1422C58.7611 61.1422 58.528 60.9025 58.528 60.6075C58.528 60.3118 58.7611 60.0726 59.0493 60.0726ZM59.9899 59.0592C60.2776 59.0592 60.5112 59.2987 60.5112 59.5946C60.5112 59.8895 60.2776 60.1294 59.9899 60.1294C59.7022 60.1294 59.4687 59.8895 59.4687 59.5946C59.4687 59.2987 59.7022 59.0592 59.9899 59.0592ZM60.8903 58.009C61.1778 58.009 61.4111 58.2485 61.4111 58.5437C61.4111 58.8394 61.1778 59.0787 60.8903 59.0787C60.6026 59.0787 60.3691 58.8394 60.3691 58.5437C60.3691 58.2485 60.6026 58.009 60.8903 58.009ZM61.7487 56.9224C62.0368 56.9224 62.2699 57.1623 62.2699 57.4574C62.2699 57.7528 62.0368 57.9922 61.7487 57.9922C61.4612 57.9922 61.2274 57.7528 61.2274 57.4574C61.2274 57.1623 61.4612 56.9224 61.7487 56.9224ZM62.5641 55.802C62.8515 55.802 63.0851 56.0412 63.0851 56.3369C63.0851 56.6324 62.8515 56.8716 62.5641 56.8716C62.2769 56.8716 62.0429 56.6324 62.0429 56.3369C62.0429 56.0412 62.2769 55.802 62.5641 55.802ZM63.3352 54.648C63.6232 54.648 63.8565 54.8876 63.8565 55.1832C63.8565 55.4784 63.6232 55.718 63.3352 55.718C63.0473 55.718 62.8142 55.4784 62.8142 55.1832C62.8142 54.8876 63.0473 54.648 63.3352 54.648ZM64.0609 53.4637C64.3488 53.4637 64.5819 53.703 64.5819 53.9991C64.5819 54.294 64.3488 54.5339 64.0609 54.5339C63.7732 54.5339 63.5397 54.294 63.5397 53.9991C63.5397 53.703 63.7732 53.4637 64.0609 53.4637ZM64.7394 52.2503C65.0273 52.2503 65.2601 52.4899 65.2601 52.785C65.2601 53.0804 65.0273 53.3198 64.7394 53.3198C64.4516 53.3198 64.2181 53.0804 64.2181 52.785C64.2181 52.4899 64.4516 52.2503 64.7394 52.2503ZM65.361 51.0046C65.6487 51.0046 65.882 51.2441 65.882 51.5398C65.882 51.8348 65.6487 52.0745 65.361 52.0745C65.0733 52.0745 64.8398 51.8348 64.8398 51.5398C64.8398 51.2441 65.0733 51.0046 65.361 51.0046ZM65.9319 49.7341C66.2193 49.7341 66.4531 49.9737 66.4531 50.2693C66.4531 50.5642 66.2193 50.804 65.9319 50.804C65.6437 50.804 65.4106 50.5642 65.4106 50.2693C65.4106 49.9737 65.6437 49.7341 65.9319 49.7341ZM66.4526 48.4412C66.7401 48.4412 66.9736 48.6805 66.9736 48.9762C66.9736 49.2714 66.7401 49.5111 66.4526 49.5111C66.1649 49.5111 65.9311 49.2714 65.9311 48.9762C65.9311 48.6805 66.1649 48.4412 66.4526 48.4412ZM66.9219 47.1281C67.2093 47.1281 67.4428 47.3677 67.4428 47.6633C67.4428 47.9585 67.2093 48.198 66.9219 48.198C66.6337 48.198 66.4006 47.9585 66.4006 47.6633C66.4006 47.3677 66.6337 47.1281 66.9219 47.1281ZM67.3396 45.7962C67.6268 45.7962 67.8603 46.0355 67.8603 46.3312C67.8603 46.6264 67.6268 46.8659 67.3396 46.8659C67.0516 46.8659 66.8183 46.6264 66.8183 46.3312C66.8183 46.0355 67.0516 45.7962 67.3396 45.7962ZM67.7048 44.448C67.992 44.448 68.2255 44.6878 68.2255 44.9834C68.2255 45.2786 67.992 45.5182 67.7048 45.5182C67.4171 45.5182 67.1838 45.2786 67.1838 44.9834C67.1838 44.6878 67.4171 44.448 67.7048 44.448ZM68.0115 43.0845C68.2992 43.0845 68.5327 43.3243 68.5327 43.62C68.5327 43.9152 68.2992 44.1547 68.0115 44.1547C67.7236 44.1547 67.4902 43.9152 67.4902 43.62C67.4902 43.3243 67.7236 43.0845 68.0115 43.0845ZM68.2571 41.7089C68.545 41.7089 68.7784 41.9482 68.7784 42.2439C68.7784 42.5387 68.545 42.7785 68.2571 42.7785C67.9696 42.7785 67.7365 42.5387 67.7365 42.2439C67.7365 41.9482 67.9696 41.7089 68.2571 41.7089ZM68.4499 40.3235C68.7374 40.3235 68.9707 40.5631 68.9707 40.8587C68.9707 41.1539 68.7374 41.3935 68.4499 41.3935C68.162 41.3935 67.9287 41.1539 67.9287 40.8587C67.9287 40.5631 68.162 40.3235 68.4499 40.3235ZM68.5891 38.9322C68.8771 38.9322 69.1104 39.1715 69.1104 39.4672C69.1104 39.7623 68.8771 40.0018 68.5891 40.0018C68.3014 40.0018 68.0679 39.7623 68.0679 39.4672C68.0679 39.1715 68.3014 38.9322 68.5891 38.9322ZM68.6755 37.5358C68.9633 37.5358 69.1967 37.7751 69.1967 38.0712C69.1967 38.3662 68.9633 38.6059 68.6755 38.6059C68.3878 38.6059 68.1548 38.3662 68.1548 38.0712C68.1548 37.7751 68.3878 37.5358 68.6755 37.5358ZM68.71 36.1374C68.9979 36.1374 69.2307 36.377 69.2307 36.6724C69.2307 36.9678 68.9979 37.2069 68.71 37.2069C68.4222 37.2069 68.1887 36.9678 68.1887 36.6724C68.1887 36.377 68.4222 36.1374 68.71 36.1374ZM68.6751 34.7389C68.9633 34.7389 69.1963 34.9782 69.1963 35.2736C69.1963 35.5688 68.9633 35.8084 68.6751 35.8084C68.3873 35.8084 68.1543 35.5688 68.1543 35.2736C68.1543 34.9782 68.3873 34.7389 68.6751 34.7389ZM68.5891 33.3425C68.8771 33.3425 69.1101 33.5821 69.1101 33.8776C69.1101 34.1726 68.8771 34.4121 68.5891 34.4121C68.3007 34.4121 68.0676 34.1726 68.0676 33.8776C68.0676 33.5821 68.3007 33.3425 68.5891 33.3425ZM68.4492 31.9506C68.7372 31.9506 68.9702 32.1904 68.9702 32.4861C68.9702 32.7813 68.7372 33.0206 68.4492 33.0206C68.1617 33.0206 67.9282 32.7813 67.9282 32.4861C67.9282 32.1904 68.1617 31.9506 68.4492 31.9506ZM68.2571 30.5658C68.545 30.5658 68.7784 30.8051 68.7784 31.1008C68.7784 31.3959 68.545 31.6354 68.2571 31.6354C67.9694 31.6354 67.7363 31.3959 67.7363 31.1008C67.7363 30.8051 67.9694 30.5658 68.2571 30.5658ZM68.0111 29.1896C68.2985 29.1896 68.532 29.4292 68.532 29.7246C68.532 30.0195 68.2985 30.2593 68.0111 30.2593C67.7233 30.2593 67.4902 30.0195 67.4902 29.7246C67.4902 29.4292 67.7233 29.1896 68.0111 29.1896ZM67.7048 27.8262C67.992 27.8262 68.2255 28.0657 68.2255 28.3614C68.2255 28.6564 67.992 28.8961 67.7048 28.8961C67.4169 28.8961 67.1835 28.6564 67.1835 28.3614C67.1835 28.0657 67.4169 27.8262 67.7048 27.8262ZM67.3391 26.4784C67.6266 26.4784 67.86 26.7177 67.86 27.0134C67.86 27.3083 67.6266 27.5481 67.3391 27.5481C67.0514 27.5481 66.8178 27.3083 66.8178 27.0134C66.8178 26.7177 67.0514 26.4784 67.3391 26.4784ZM66.9219 25.1463C67.2098 25.1463 67.4428 25.3861 67.4428 25.6815C67.4428 25.9767 67.2098 26.216 66.9219 26.216C66.6337 26.216 66.4006 25.9767 66.4006 25.6815C66.4006 25.3861 66.6337 25.1463 66.9219 25.1463ZM66.4523 23.8332C66.7398 23.8332 66.9733 24.0729 66.9733 24.3682C66.9733 24.6633 66.7398 24.9028 66.4523 24.9028C66.1644 24.9028 65.9308 24.6633 65.9308 24.3682C65.9308 24.0729 66.1644 23.8332 66.4523 23.8332ZM65.9314 22.5403C66.2189 22.5403 66.4526 22.7798 66.4526 23.0755C66.4526 23.3707 66.2189 23.6102 65.9314 23.6102C65.6437 23.6102 65.4106 23.3707 65.4106 23.0755C65.4106 22.7798 65.6437 22.5403 65.9314 22.5403ZM65.3608 21.2698C65.6487 21.2698 65.882 21.5094 65.882 21.805C65.882 22.1002 65.6487 22.3395 65.3608 22.3395C65.0728 22.3395 64.8395 22.1002 64.8395 21.805C64.8395 21.5094 65.0728 21.2698 65.3608 21.2698ZM64.7394 20.0246C65.0273 20.0246 65.2601 20.2639 65.2601 20.5595C65.2601 20.8545 65.0273 21.0943 64.7394 21.0943C64.4516 21.0943 64.2181 20.8545 64.2181 20.5595C64.2181 20.2639 64.4516 20.0246 64.7394 20.0246ZM64.0607 18.8105C64.3479 18.8105 64.5819 19.0503 64.5819 19.3457C64.5819 19.6408 64.3479 19.8804 64.0607 19.8804C63.7725 19.8804 63.5394 19.6408 63.5394 19.3457C63.5394 19.0503 63.7725 18.8105 64.0607 18.8105ZM63.335 17.6262C63.6225 17.6262 63.8555 17.8659 63.8555 18.1616C63.8555 18.4568 63.6225 18.6961 63.335 18.6961C63.0471 18.6961 62.814 18.4568 62.814 18.1616C62.814 17.8659 63.0471 17.6262 63.335 17.6262ZM62.5645 16.4727C62.852 16.4727 63.0854 16.712 63.0854 17.0077C63.0854 17.3026 62.852 17.5424 62.5645 17.5424C62.2769 17.5424 62.0429 17.3026 62.0429 17.0077C62.0429 16.712 62.2769 16.4727 62.5645 16.4727ZM61.7487 15.3517C62.0366 15.3517 62.2696 15.5913 62.2696 15.8869C62.2696 16.1821 62.0366 16.4219 61.7487 16.4219C61.4612 16.4219 61.2274 16.1821 61.2274 15.8869C61.2274 15.5913 61.4612 15.3517 61.7487 15.3517ZM60.8903 14.2656C61.1778 14.2656 61.4111 14.505 61.4111 14.8006C61.4111 15.0955 61.1778 15.3353 60.8903 15.3353C60.6026 15.3353 60.3688 15.0955 60.3688 14.8006C60.3688 14.505 60.6026 14.2656 60.8903 14.2656ZM59.9899 13.215C60.2773 13.215 60.5107 13.4548 60.5107 13.7499C60.5107 14.0453 60.2773 14.2847 59.9899 14.2847C59.7017 14.2847 59.4687 14.0453 59.4687 13.7499C59.4687 13.4548 59.7017 13.215 59.9899 13.215ZM59.0493 12.2021C59.3372 12.2021 59.5705 12.4414 59.5705 12.7371C59.5705 13.0322 59.3372 13.2718 59.0493 13.2718C58.7611 13.2718 58.528 13.0322 58.528 12.7371C58.528 12.4414 58.7611 12.2021 59.0493 12.2021ZM58.0622 11.2369C58.3501 11.2369 58.5834 11.4762 58.5834 11.7716C58.5834 12.0668 58.3501 12.3064 58.0622 12.3064C57.7749 12.3064 57.5409 12.0668 57.5409 11.7716C57.5409 11.4762 57.7749 11.2369 58.0622 11.2369ZM57.0387 10.3123C57.3266 10.3123 57.5599 10.5519 57.5599 10.8478C57.5599 11.1428 57.3266 11.3825 57.0387 11.3825C56.7509 11.3825 56.5176 11.1428 56.5176 10.8478C56.5176 10.5519 56.7509 10.3123 57.0387 10.3123ZM55.9805 9.43115C56.2682 9.43115 56.5013 9.67075 56.5013 9.9659C56.5013 10.2613 56.2682 10.5006 55.9805 10.5006C55.6926 10.5006 55.4592 10.2613 55.4592 9.9659C55.4592 9.67075 55.6926 9.43115 55.9805 9.43115ZM54.888 8.59429C55.1762 8.59429 55.4092 8.83364 55.4092 9.12929C55.4092 9.4247 55.1762 9.66404 54.888 9.66404C54.6002 9.66404 54.3672 9.4247 54.3672 9.12929C54.3672 8.83364 54.6002 8.59429 54.888 8.59429ZM53.7645 7.80296C54.0521 7.80296 54.2855 8.04247 54.2855 8.33787C54.2855 8.63285 54.0521 8.87262 53.7645 8.87262C53.4769 8.87262 53.243 8.63285 53.243 8.33787C53.243 8.04247 53.4769 7.80296 53.7645 7.80296ZM52.6104 7.05799C52.8983 7.05799 53.1316 7.29785 53.1316 7.593C53.1316 7.8884 52.8983 8.12774 52.6104 8.12774C52.3222 8.12774 52.0891 7.8884 52.0891 7.593C52.0891 7.29785 52.3222 7.05799 52.6104 7.05799ZM51.428 6.36153C51.7159 6.36153 51.9492 6.60105 51.9492 6.89696C51.9492 7.19185 51.7159 7.43171 51.428 7.43171C51.1401 7.43171 50.9068 7.19185 50.9068 6.89696C50.9068 6.60105 51.1401 6.36153 51.428 6.36153ZM50.2148 5.72375C50.5023 5.72375 50.736 5.96302 50.736 6.25867C50.736 6.55365 50.5023 6.79342 50.2148 6.79342C49.9269 6.79342 49.6938 6.55365 49.6938 6.25867C49.6938 5.96302 49.9269 5.72375 50.2148 5.72375ZM48.977 5.13771C49.2648 5.13771 49.4979 5.37731 49.4979 5.67296C49.4979 5.96811 49.2648 6.20763 48.977 6.20763C48.6889 6.20763 48.4554 5.96811 48.4554 5.67296C48.4554 5.37731 48.6889 5.13771 48.977 5.13771ZM47.7172 4.60296C48.0049 4.60296 48.2382 4.84256 48.2382 5.13822C48.2382 5.43336 48.0049 5.67313 47.7172 5.67313C47.4294 5.67313 47.1957 5.43336 47.1957 5.13822C47.1957 4.84256 47.4294 4.60296 47.7172 4.60296ZM46.4377 4.12146C46.7253 4.12146 46.9586 4.36123 46.9586 4.65672C46.9586 4.95187 46.7253 5.19138 46.4377 5.19138C46.1498 5.19138 45.9165 4.95187 45.9165 4.65672C45.9165 4.36123 46.1498 4.12146 46.4377 4.12146ZM45.1408 3.69314C45.428 3.69314 45.6615 3.93248 45.6615 4.22789C45.6615 4.52329 45.428 4.76289 45.1408 4.76289C44.8524 4.76289 44.6196 4.52329 44.6196 4.22789C44.6196 3.93248 44.8524 3.69314 45.1408 3.69314ZM43.8275 3.31781C44.1147 3.31781 44.3484 3.55716 44.3484 3.85282C44.3484 4.14822 44.1147 4.38799 43.8275 4.38799C43.5395 4.38799 43.306 4.14822 43.306 3.85282C43.306 3.55716 43.5395 3.31781 43.8275 3.31781ZM42.4987 3.00338C42.7864 3.00338 43.02 3.24273 43.02 3.53839C43.02 3.83328 42.7864 4.07305 42.4987 4.07305C42.211 4.07305 41.9775 3.83328 41.9775 3.53839C41.9775 3.24273 42.211 3.00338 42.4987 3.00338ZM41.1577 2.75079C41.4459 2.75079 41.6789 2.99013 41.6789 3.28579C41.6789 3.58119 41.4459 3.82096 41.1577 3.82096C40.8705 3.82096 40.6365 3.58119 40.6365 3.28579C40.6365 2.99013 40.8705 2.75079 41.1577 2.75079ZM39.8092 2.55315C40.0966 2.55315 40.3297 2.79275 40.3297 3.08815C40.3297 3.38381 40.0966 3.62307 39.8092 3.62307C39.521 3.62307 39.2874 3.38381 39.2874 3.08815C39.2874 2.79275 39.521 2.55315 39.8092 2.55315ZM38.4535 2.41012C38.7407 2.41012 38.9738 2.64997 38.9738 2.94512C38.9738 3.24052 38.7407 3.47987 38.4535 3.47987C38.1653 3.47987 37.9322 3.24052 37.9322 2.94512C37.9322 2.64997 38.1653 2.41012 38.4535 2.41012ZM35.7293 2.28662C36.0165 2.28662 36.25 2.52622 36.25 2.82188C36.25 3.11703 36.0165 3.35654 35.7293 3.35654C35.4413 3.35654 35.2083 3.11703 35.2083 2.82188C35.2083 2.52622 35.4413 2.28662 35.7293 2.28662ZM37.0922 2.32127C37.3799 2.32127 37.6135 2.56113 37.6135 2.85628C37.6135 3.15193 37.3799 3.39103 37.0922 3.39103C36.804 3.39103 36.5712 3.15193 36.5712 2.85628C36.5712 2.56113 36.804 2.32127 37.0922 2.32127Z" fill="white"/>
<path fill-rule="evenodd" clip-rule="evenodd" d="M53.5702 47.9033C53.4017 48.2006 53.9029 47.9384 53.5702 47.9033V47.9033ZM31.461 62.0296C31.8862 62.0645 32.3114 62.0955 32.7366 62.1398C32.9739 63.1491 33.3196 64.1323 33.4704 65.1609C33.6182 64.9948 33.6322 64.7535 33.7147 64.5532C33.9919 63.797 34.3157 63.0593 34.5952 62.304C34.9482 62.3267 35.3006 62.3597 35.6538 62.3917C35.1157 63.6041 34.562 64.8101 34.0142 66.0185C33.7427 66.5715 33.5185 67.1946 33.0262 67.5846C32.6379 67.8911 32.1132 67.757 31.6929 67.6022C31.7656 67.3142 31.8701 67.0388 31.9719 66.7612C32.3645 66.9078 32.8391 66.7056 32.9169 66.2588C32.4462 64.8443 31.9462 63.439 31.461 62.0296ZM40.0508 61.9821C40.4206 61.9429 40.7885 61.8829 41.1595 61.8563C41.3124 63.1944 41.4821 64.5315 41.6268 65.8709C41.2934 65.9132 40.9602 65.9576 40.6279 65.9937C40.5249 65.094 40.3785 64.1974 40.3881 63.2892C40.2116 63.3903 40.1803 63.6029 40.111 63.7794C39.9018 64.3428 39.6122 64.8701 39.362 65.4149C39.2424 65.4323 39.1219 65.451 39.0033 65.4705C38.5528 64.9514 38.041 64.48 37.6784 63.8877C37.6191 63.7876 37.5406 63.7094 37.441 63.6547C37.6834 64.5284 37.7508 65.4344 37.8674 66.332C37.5568 66.3805 37.245 66.4186 36.9325 66.4497C36.7709 65.1104 36.6198 63.7702 36.4548 62.4319C36.8249 62.3835 37.1949 62.338 37.5647 62.2956C38.0773 62.9251 38.6263 63.5256 39.0887 64.1974C39.3591 63.4368 39.7181 62.7145 40.0508 61.9821ZM27.8712 61.1009C28.2179 61.1792 28.5608 61.2733 28.9036 61.3714C28.7628 61.9376 28.62 62.5041 28.4724 63.0684C28.6191 63.0335 28.7939 63.054 28.9104 62.9365C29.344 62.5383 29.7649 62.1254 30.1927 61.719C30.5541 61.8056 30.9138 61.9015 31.271 62.0057C30.9109 62.3741 30.5016 62.6878 30.125 63.0386C29.938 63.2398 29.6616 63.2832 29.4184 63.3759C29.5289 63.6142 29.7983 63.7392 29.8607 64.0033C30.0545 64.6637 30.2717 65.3167 30.4696 65.9761C30.0694 65.8615 29.6635 65.7707 29.2674 65.6417C29.0924 65.0073 28.8774 64.3852 28.6725 63.7599C28.5557 63.7267 28.44 63.6949 28.3246 63.6629C28.1867 64.2046 28.046 64.7441 27.9173 65.2878C27.5706 65.2033 27.2282 65.1043 26.881 65.0186C27.2068 63.7113 27.5455 62.4083 27.8712 61.1009ZM43.9302 61.8418C43.7279 62.0862 43.764 62.4278 43.785 62.7249C44.33 62.5321 44.8769 62.3433 45.4157 62.1326C45.3102 61.8779 45.1956 61.5817 44.9161 61.4857C44.5581 61.4063 44.1649 61.5592 43.9302 61.8418ZM43.6584 60.9421C44.2325 60.6233 44.9761 60.3972 45.5866 60.7461C46.1758 61.0771 46.3657 61.8004 46.4651 62.4341C45.6347 62.7217 44.8114 63.0345 43.9793 63.3181C44.0987 63.6865 44.4112 64.0466 44.8186 64.0259C45.4085 64.031 45.9355 63.6865 46.3204 63.2522C46.5024 63.4296 46.6864 63.6041 46.8704 63.7794C46.3416 64.4398 45.5565 64.8865 44.7223 64.9514C44.334 64.9825 43.9369 64.8588 43.6422 64.5956C43.0894 64.1198 42.8239 63.3771 42.7386 62.6599C42.6633 61.9573 43.0553 61.2649 43.6584 60.9421ZM23.9366 60.5179C23.424 60.7625 23.1575 61.3846 23.1081 61.9357C23.0207 62.6847 24.0381 63.2098 24.5753 62.7044C24.9148 62.3732 25.1259 61.8964 25.1741 61.4197C25.2352 60.781 24.4884 60.3055 23.9366 60.5179ZM23.4502 59.6099C24.355 59.2911 25.4447 59.7494 25.9553 60.5602C26.3986 61.2875 26.1862 62.2306 25.7571 62.9107C25.4155 63.4915 24.783 63.9219 24.1046 63.8651C23.4803 63.8061 22.8661 63.5071 22.4528 63.02C22.0596 62.561 21.9681 61.8923 22.1373 61.3164C22.3374 60.6098 22.7556 59.8938 23.4502 59.6099ZM49.0967 58.3924C49.4065 58.2015 49.718 58.0159 50.0284 57.8281C50.6953 59.0001 51.3658 60.1683 52.0373 61.3362C51.7327 61.5259 51.42 61.7035 51.1205 61.9027C50.8407 61.4568 50.5867 60.9945 50.3302 60.5354C49.9041 60.7769 49.4879 61.0379 49.0687 61.2929C49.328 61.7488 49.5894 62.203 49.8488 62.6579C49.5381 62.8436 49.2286 63.0323 48.919 63.2192C48.2576 62.0418 47.563 60.8843 46.9183 59.6975C47.2312 59.5254 47.5315 59.3323 47.8396 59.1508C48.1028 59.5832 48.3298 60.0382 48.6072 60.4613C49.0174 60.2063 49.4313 59.9566 49.8488 59.712C49.6075 59.2663 49.3442 58.8339 49.0967 58.3924ZM50.6922 57.34C51.5738 56.5302 52.4863 55.7563 53.3853 54.9669C53.5854 55.2083 53.7873 55.4489 53.9831 55.6932C53.6708 55.9596 53.3641 56.2331 53.0555 56.5032C53.7077 57.3018 54.3815 58.0818 55.0256 58.8889C54.7502 59.1188 54.475 59.3499 54.2174 59.6017C53.5439 58.8434 52.9047 58.051 52.2623 57.2647C51.8834 57.4433 51.627 57.8064 51.282 58.0406C51.0952 57.7982 50.8982 57.564 50.6922 57.34ZM20.3591 56.4711C19.6553 57.3668 18.8601 58.2181 17.8771 58.7897C18.3576 59.1982 18.871 59.5647 19.3549 59.9701C20.0283 59.0672 20.7019 58.1635 21.3743 57.2597C21.0366 56.9943 20.7089 56.7169 20.3591 56.4714V56.4711ZM20.1368 55.0175C21.0527 55.7315 21.9635 56.4517 22.8791 57.1657C22.0097 58.3358 21.1392 59.5057 20.2657 60.6727C20.4566 60.8256 20.6485 60.9782 20.8415 61.1289C20.4523 61.655 20.0584 62.1771 19.6715 62.7044C19.4714 62.5289 19.2181 62.398 19.0592 62.1844C19.1808 61.8955 19.4112 61.6509 19.4967 61.3526C18.5303 60.5684 17.5412 59.8131 16.5662 59.0415C16.3381 59.2674 16.1309 59.5141 15.9108 59.7482C15.7228 59.5647 15.4033 59.446 15.3008 59.2117C15.6838 58.6998 16.0517 58.1748 16.4607 57.6846C16.6213 57.8158 16.7831 57.9437 16.9502 58.0674C18.2702 57.3928 19.2584 56.2042 20.1368 55.0175ZM60.2459 46.0947C59.8328 46.2144 59.6055 46.6631 59.5966 47.0801C59.6176 47.4494 59.8971 47.7343 60.2046 47.89C60.5416 48.0602 60.9254 48.2181 61.3065 48.1335C61.9479 47.9827 62.2354 47.0037 61.7276 46.5456C61.3267 46.2052 60.7686 45.9637 60.2459 46.0947ZM60.0382 45.0609C60.7075 44.8533 61.432 45.0627 62.0153 45.4239C62.5137 45.7295 62.8996 46.267 62.928 46.8767C62.9511 47.5082 62.7118 48.1387 62.3208 48.6227C61.8834 49.1415 61.1609 49.323 60.5214 49.1672C59.8236 49.0001 59.118 48.5894 58.8113 47.895C58.5269 47.2431 58.7121 46.4867 59.0508 45.8965C59.2689 45.5074 59.6217 45.2012 60.0382 45.0609ZM7.89114 46.1185C8.0368 46.53 8.18485 46.9417 8.33221 47.3533C9.39584 46.9934 10.5046 46.719 11.6316 46.7642C11.4084 46.1597 11.1992 45.5508 10.9762 44.9472C9.95106 45.3445 8.91749 45.7212 7.89114 46.1185ZM10.3399 43.1726C10.942 42.9405 11.5471 42.7156 12.1514 42.4864C12.2417 42.7392 12.3331 42.992 12.4266 43.2439C12.1499 43.3996 11.8699 43.5462 11.5913 43.6979C12.0095 44.8925 12.4439 46.0824 12.8669 47.2751C13.1736 47.2079 13.478 47.1347 13.7837 47.0604C13.8853 47.3141 13.9797 47.5713 14.0529 47.8364C13.442 48.0427 12.8517 48.314 12.2337 48.4955C12.1745 48.2976 12.109 48.1004 12.0394 47.9063C11.3056 47.7723 10.5609 47.9117 9.84031 48.0612C9.12719 48.2056 8.44101 48.4522 7.76136 48.7081C7.36531 47.599 6.96637 46.491 6.57007 45.3817C7.90991 44.8762 9.25094 44.3706 10.592 43.865C10.5096 43.6329 10.4253 43.4028 10.3399 43.1726ZM62.6456 42.6939C62.7108 42.9941 63.137 43.0809 63.3058 42.8227C63.5169 42.4948 63.536 42.0822 63.5704 41.7022C63.301 41.6529 63.0335 41.5982 62.7682 41.5373C62.6928 41.9139 62.5489 42.307 62.6456 42.6939ZM61.0651 42.4317C61.1245 42.7991 61.6633 42.8931 61.847 42.5743C62.0514 42.2263 62.0577 41.8024 62.1497 41.4165C61.8543 41.3484 61.5569 41.2887 61.2622 41.2183C61.1004 41.593 60.9938 42.0232 61.0651 42.4317ZM60.2568 43.0457C60.0702 42.0254 60.4178 41.0079 60.6661 40.0299C61.964 40.3022 63.2626 40.5654 64.5594 40.843C64.4378 41.6187 64.3634 42.41 64.127 43.1612C64.0004 43.5534 63.7533 43.9743 63.32 44.0446C62.7701 44.1404 62.2755 43.669 62.2072 43.1251C62.0274 43.3264 61.9187 43.5978 61.6795 43.7369C61.1346 44.028 60.3716 43.6763 60.2568 43.0457ZM7.78642 40.1135C7.6388 40.4147 7.71006 40.7808 7.85598 41.0698C8.02067 41.3834 8.38758 41.4723 8.70804 41.4981C8.64494 40.9149 8.54454 40.3374 8.46776 39.7574C8.21109 39.7885 7.92605 39.8667 7.78616 40.1135H7.78642ZM9.7214 39.0693C9.92244 38.9176 10.1227 38.765 10.3238 38.6133C10.9117 39.3045 11.1712 40.2806 11.0013 41.1824C10.8635 41.8056 10.3153 42.2398 9.73991 42.4082C9.07496 42.6 8.30189 42.6619 7.70114 42.2555C6.9341 41.6931 6.70775 40.5685 6.97529 39.6801C7.27188 38.869 8.22171 38.6649 8.97261 38.7524C9.09517 39.6408 9.21774 40.5302 9.34845 41.4186C9.68649 41.3514 10.0604 41.1523 10.1478 40.782C10.2905 40.1804 10.0683 39.5542 9.7214 39.0693ZM63.9272 35.6727C64.2368 35.6705 64.5464 35.6881 64.856 35.7034C64.8127 36.916 64.7645 38.1293 64.7501 39.3437C64.4417 39.3272 64.1331 39.3086 63.8246 39.3076C63.8106 38.8897 63.8345 38.4717 63.8518 38.054C62.8414 37.9972 61.828 37.9787 60.817 37.9467C60.805 37.5742 60.8421 37.2027 60.8349 36.8312C61.8482 36.8736 62.8625 36.8901 63.8759 36.9386C63.905 36.5165 63.894 36.0935 63.9272 35.6727ZM7.73724 34.489C7.48906 34.7224 7.50299 35.1062 7.55234 35.4187C7.65086 35.7581 8.00478 35.9719 8.33773 35.9801C8.79977 35.9883 9.26029 36.0285 9.7214 36.0326C9.99803 35.6209 10.0524 35.0113 9.72352 34.6141C9.46014 34.3591 9.08218 34.29 8.73429 34.2591C8.39336 34.2372 8.01345 34.2601 7.73724 34.489ZM7.0598 33.5935C7.44982 33.2119 8.02279 33.1437 8.53732 33.1428C9.20083 33.1406 9.91564 33.3149 10.3869 33.8237C10.9208 34.4335 10.9517 35.3621 10.6344 36.0863C11.1531 36.111 11.6737 36.1214 12.1918 36.1679L12.1855 36.3412C12.1783 36.5115 12.1653 36.6807 12.1526 36.8509C12.1413 36.9913 12.1309 37.1326 12.1208 37.2749C10.2987 37.1738 8.47396 37.0912 6.6505 37.013C6.66273 36.7458 6.6736 36.4785 6.68252 36.2113C6.87057 36.177 7.05547 36.1296 7.23698 36.0687C6.52098 35.4786 6.44827 34.2838 7.0598 33.5935ZM61.807 31.691C62.3762 31.5268 62.9964 31.4599 63.5704 31.6373C64.0437 31.7849 64.4412 32.1686 64.6037 32.6504C64.8148 33.2624 64.844 33.9495 64.6261 34.5635C64.3403 34.5057 64.0547 34.4511 63.769 34.4046C63.8759 33.9031 63.9252 33.3005 63.5764 32.8837C63.3 32.5998 62.8746 32.601 62.5137 32.6494C62.1299 32.7072 61.7187 32.9229 61.5961 33.3274C61.4493 33.7938 61.5936 34.3086 61.8465 34.7089C61.591 34.8223 61.3373 34.9378 61.0865 35.0566C60.6512 34.4272 60.4672 33.6038 60.623 32.8467C60.7535 32.2594 61.2612 31.8467 61.807 31.691ZM8.50411 25.8439C8.67814 25.8182 8.77157 26.0634 8.90305 26.1595C9.26708 26.6227 9.80489 26.9531 10.0009 27.5381C10.1723 27.4028 10.318 27.2078 10.5397 27.1594C11.1592 26.992 11.7744 26.8137 12.3962 26.6611C12.2809 27.0634 12.1875 27.4719 12.0596 27.8714C11.4536 27.9972 10.8542 28.153 10.2503 28.2881C10.211 28.4325 10.1723 28.5779 10.1336 28.7236C10.6615 28.87 11.1883 29.0248 11.7161 29.1733C11.6284 29.5006 11.5391 29.8275 11.4467 30.1535C10.8837 29.9927 10.3197 29.8316 9.75673 29.6696C9.79988 29.8419 9.74042 30.0721 9.89568 30.1981C10.2845 30.6158 10.7097 30.9954 11.1046 31.4062C11.0042 31.8066 10.8886 32.2017 10.7942 32.603C10.3339 32.1037 9.88846 31.5899 9.43177 31.0874C9.31643 30.9583 9.26606 30.785 9.19268 30.6314C9.02604 30.7571 8.88233 30.9254 8.68902 31.007C8.12318 31.1524 7.55523 31.2906 6.98948 31.4328C7.08893 31.05 7.1951 30.6704 7.29694 30.2888C7.89403 30.166 8.49834 30.0762 9.08719 29.9173C9.11853 29.781 9.15174 29.645 9.1847 29.5087C8.66829 29.3581 8.15019 29.2095 7.63184 29.0672C7.71703 28.7431 7.80468 28.4212 7.88392 28.0962C8.44585 28.2168 8.99045 28.4058 9.5466 28.5522C9.5427 28.4118 9.53862 28.2718 9.53454 28.1323C9.10358 27.7329 8.67891 27.3255 8.25661 26.917C8.25806 26.5546 8.42512 26.1987 8.50411 25.8439ZM58.8014 26.0791C60.057 25.6395 61.3144 25.2042 62.578 24.7904C62.6808 25.1556 62.8151 25.5116 62.9119 25.88C62.3993 26.5084 61.953 27.1933 61.3999 27.7866C62.1814 27.9188 62.9449 28.1314 63.7141 28.3191C63.834 28.6822 63.9604 29.0434 64.0608 29.4127C62.8033 29.8284 61.5528 30.264 60.3013 30.6952C60.1928 30.3701 60.087 30.0452 59.9833 29.7191C60.7316 29.4808 61.4572 29.158 62.2293 29.0031C62.3389 28.9805 62.4595 28.9504 62.5178 28.8401C61.764 28.7183 61.0279 28.513 60.2891 28.3201C60.245 28.2005 60.2007 28.0808 60.1585 27.9611C60.4287 27.5772 60.6974 27.1924 60.9697 26.8105C61.1669 26.5279 61.4409 26.3112 61.6212 26.015C61.2483 26.1243 60.9266 26.3608 60.5575 26.4795C60.0678 26.6425 59.5805 26.8117 59.0932 26.9789C58.9945 26.6796 58.896 26.3803 58.8014 26.0791ZM12.3683 23.0239C12.114 23.3602 11.8194 23.7276 11.8215 24.1764C11.8165 24.5014 12.1723 24.6955 12.4518 24.6202C12.91 24.3828 13.0388 23.7349 12.7964 23.2902C12.669 23.1787 12.514 23.1064 12.3683 23.0239ZM10.3348 22.0036C10.5527 21.6486 10.9286 21.3463 11.3578 21.3834C11.9229 21.4411 12.3894 21.8032 12.8607 22.0922C13.3542 22.4172 13.8802 22.7011 14.455 22.8373C14.3114 23.0973 14.1807 23.3655 14.023 23.6184C13.822 23.5574 13.619 23.5005 13.4079 23.509C13.7717 24.2539 13.5032 25.236 12.7915 25.6467C12.0681 26.0481 11.0867 25.4178 11.0706 24.5871C11.0798 23.8959 11.4262 23.2644 11.8384 22.7372C11.6103 22.573 11.2817 22.3637 11.0302 22.6071C10.6425 23.058 10.5046 23.672 10.4304 24.2539C10.1528 24.2022 9.87428 24.1559 9.59688 24.1032C9.70135 23.3624 9.93976 22.6351 10.3348 22.0036ZM57.6725 21.568C58.306 20.9511 59.2538 20.4826 60.1244 20.8344C60.9788 21.2059 61.4421 22.1675 61.58 23.0653C61.2913 23.1353 61.0048 23.2085 60.7183 23.282C60.618 22.7723 60.4169 22.2264 59.9696 21.9364C59.743 21.7806 59.4618 21.8239 59.2066 21.828C59.4286 22.3678 59.7693 22.8454 60.0428 23.3592C59.842 23.4799 59.6409 23.6017 59.4428 23.7257C59.1503 23.2314 58.8758 22.7268 58.5864 22.2306C58.3078 22.4771 58.1502 22.8919 58.2636 23.2603C58.3902 23.7122 58.6707 24.1218 59.0776 24.3509C58.8809 24.5746 58.6877 24.8017 58.4889 25.0224C57.9246 24.6707 57.5326 24.0846 57.2822 23.4698C57.0232 22.8248 57.1799 22.0478 57.6725 21.568ZM15.2032 18.9423C14.8886 19.1672 14.6815 19.5088 14.4412 19.8078C14.6834 20.0018 14.9237 20.1988 15.1589 20.4013C15.4363 20.1165 15.743 19.814 15.8482 19.4137C15.957 19.0516 15.5027 18.7256 15.2032 18.9423ZM13.3373 18.8949C13.5475 19.0651 13.7555 19.2362 13.9626 19.4118C14.1788 19.0867 14.5447 18.8154 14.5686 18.3933C14.5849 18.128 14.2975 17.9518 14.0683 18.0498C13.7374 18.2376 13.5435 18.5852 13.3373 18.8949ZM13.5172 17.3171C13.822 17.0251 14.2932 16.7754 14.6936 17.0261C15.1568 17.2572 15.3019 17.8589 15.1288 18.3324C15.3871 18.1683 15.6556 17.9528 15.9804 18.0024C16.5994 18.0517 17.0407 18.775 16.8166 19.3735C16.504 20.3228 15.7681 21.0306 15.1418 21.7692C14.1054 20.9295 13.078 20.0773 12.0456 19.2322C12.5082 18.5727 12.9391 17.8774 13.5172 17.3171ZM56.5407 15.6672C56.7887 15.9345 57.016 16.2215 57.2514 16.501C56.63 17.0355 56.0189 17.5834 55.3954 18.1158C56.434 18.0166 57.4787 18.0878 58.519 18.0197C58.6685 18.1848 58.8142 18.355 58.9571 18.5275C57.9621 19.4159 56.9659 20.3021 55.9573 21.1761C55.7404 20.8922 55.4972 20.6312 55.276 20.3517C55.8952 19.8018 56.5046 19.2384 57.164 18.7378C56.1085 18.9134 55.0419 18.7668 53.9792 18.805C53.8396 18.6431 53.7009 18.4788 53.5641 18.3149C54.5523 17.4287 55.5605 16.564 56.5407 15.6672ZM17.468 13.352C17.7374 13.1209 18.0057 12.8886 18.2669 12.6473C19.1375 13.6655 19.9688 14.7201 20.8527 15.7282C20.5883 15.9778 20.3208 16.2265 20.0283 16.4413C19.7055 16.0325 19.366 15.6374 19.0323 15.2382C18.6613 15.5733 18.277 15.8942 17.907 16.2318C18.2459 16.63 18.5707 17.0386 18.9134 17.4327C18.6492 17.6773 18.3818 17.9186 18.0993 18.1406C17.2559 17.0983 16.3753 16.0883 15.5379 15.04C15.8094 14.8139 16.0716 14.5778 16.3381 14.3457C16.6687 14.7294 16.9764 15.1327 17.3159 15.5074C17.678 15.1679 18.0521 14.8441 18.434 14.5292C18.1265 14.1237 17.7864 13.7472 17.468 13.352ZM52.206 13.7029C51.8432 14.1042 51.5466 14.5655 51.2018 14.9842C51.3285 15.4228 51.7173 15.7746 52.1598 15.8396C52.5932 15.8563 52.9216 15.5168 53.1811 15.203C53.4084 14.9131 53.6325 14.5479 53.548 14.1599C53.3641 13.6285 52.6603 13.3075 52.206 13.7029ZM52.181 11.895C52.3828 12.0611 52.5871 12.2232 52.7918 12.3852C52.7249 12.5463 52.6575 12.7083 52.592 12.87C52.8824 12.9134 53.1821 12.8031 53.4666 12.9094C53.9944 13.0877 54.4718 13.5098 54.6459 14.0618C54.7906 14.6036 54.5402 15.1453 54.2537 15.5878C53.9039 16.1131 53.4375 16.6052 52.8294 16.793C52.0965 17.0283 51.2832 16.6464 50.8306 16.0471C50.7475 15.9831 50.7112 15.7777 50.5857 15.822C50.2679 16.1998 49.9824 16.6043 49.68 16.9952C49.3993 16.7651 49.1169 16.538 48.8345 16.3122C49.9381 14.8306 51.0651 13.3675 52.181 11.8953V11.895ZM21.5843 11.4576C21.3503 11.7404 21.4293 12.1315 21.5179 12.4555C22.0247 12.1726 22.5266 11.8796 23.026 11.5846C22.8909 11.3793 22.7595 11.1297 22.5071 11.0634C22.1563 10.9613 21.8125 11.2059 21.5843 11.4576ZM21.241 10.6002C21.7261 10.2513 22.3564 9.97089 22.9506 10.1866C23.5887 10.4177 23.9248 11.0936 24.1085 11.7176C23.3385 12.1478 22.5765 12.5956 21.8157 13.0434C22.0097 13.3003 22.257 13.5801 22.6017 13.5717C23.2258 13.5161 23.7598 13.0724 24.0884 12.5451C24.3027 12.6813 24.5168 12.8186 24.7308 12.9568C24.3347 13.7132 23.611 14.2766 22.8038 14.4902C22.2488 14.6346 21.6527 14.4138 21.2687 13.9897C20.8204 13.5057 20.4775 12.8795 20.4215 12.2056C20.3711 11.563 20.7339 10.9522 21.241 10.6002ZM45.4056 12.704C46.0055 11.4927 46.5805 10.2692 47.1898 9.06175C48.2455 9.60873 49.29 10.1763 50.3575 10.6982C49.7994 11.9311 49.1963 13.1457 48.5831 14.3517C48.2665 14.1868 47.9477 14.0279 47.6333 13.8587C48.1006 12.9341 48.553 12.0024 49.0054 11.0706C48.5769 10.853 48.1517 10.6313 47.7248 10.4146C47.2633 11.3379 46.813 12.2677 46.3664 13.1992C46.046 13.0352 45.7255 12.8713 45.4056 12.704ZM41.7214 10.5961C42.1969 10.7209 42.6693 10.8551 43.1419 10.9883C43.3379 10.2648 43.5245 9.54061 43.7161 8.81739C43.4049 8.73484 43.0945 8.64905 42.7861 8.55834C42.5196 9.27961 42.2097 10.0007 41.7214 10.5961ZM42.1415 7.43882C43.0846 7.70916 44.0325 7.96006 44.9753 8.23015C44.7194 9.23 44.4437 10.2246 44.1933 11.2266C44.3903 11.2782 44.5884 11.3319 44.7872 11.3834C44.6366 12.0005 44.4678 12.6112 44.3069 13.2252C44.0695 13.154 43.8303 13.0858 43.5912 13.0199C43.6314 12.7081 43.6675 12.3955 43.6997 12.0828C42.7348 11.8115 41.7667 11.5485 40.8015 11.276C40.677 11.564 40.5511 11.8507 40.4245 12.1377C40.1835 12.0768 39.9439 12.0108 39.7068 11.9374C39.8799 11.3307 40.0256 10.7158 40.1964 10.1091C40.3633 10.1565 40.5309 10.2029 40.698 10.2516C41.48 9.51776 41.8389 8.45217 42.1415 7.43882ZM38.4527 6.87757C38.8032 6.93125 39.1579 6.95605 39.5098 7.01075C39.3379 8.34983 39.2424 9.69952 39.0486 11.0345C38.7047 10.982 38.358 10.9459 38.0118 10.9076C38.1589 9.56422 38.2969 8.21979 38.4527 6.87757ZM38.6252 5.73545C39.0403 5.48456 39.7954 5.74361 39.7251 6.32142C39.6615 6.82075 39.0074 6.89396 38.6474 6.68766C38.2856 6.51014 38.2846 5.93768 38.6252 5.73545ZM32.1746 5.53221C33.589 5.43402 35.0074 5.39911 36.4228 5.30713C36.5273 7.11284 36.5866 8.92042 36.6862 10.7271C36.3183 10.7509 35.9492 10.7663 35.5823 10.788C35.4971 9.31579 35.4487 7.84132 35.3683 6.36788C34.6906 6.42037 34.0101 6.42665 33.3336 6.48126C33.409 7.94851 33.4704 9.41567 33.5405 10.8828C33.1735 10.9076 32.8059 10.9139 32.4389 10.9407C32.3388 9.1381 32.2822 7.33358 32.1746 5.53221Z" fill="white"/>
<path fill-rule="evenodd" clip-rule="evenodd" d="M35.7292 13.5176C29.501 13.5176 23.8612 16.1095 19.7793 20.2993C15.6968 24.4897 13.1713 30.2785 13.1713 36.6719C13.1713 43.0652 15.6968 48.854 19.7793 53.0443C23.8612 57.2342 29.501 59.826 35.7292 59.826C41.9574 59.826 47.5972 57.2342 51.6793 53.0443C55.7618 48.854 58.2872 43.0652 58.2872 36.6719C58.2872 30.279 55.7618 24.4897 51.6793 20.2993C47.5972 16.1095 41.9574 13.5176 35.7292 13.5176ZM35.7292 13.6808C48.1001 13.6808 58.1288 23.9745 58.1288 36.6719C58.1288 49.3698 48.1001 59.663 35.7292 59.663C23.3582 59.663 13.3297 49.3698 13.3297 36.6719C13.3297 23.9745 23.3582 13.6808 35.7292 13.6808Z" fill="white"/>
<path fill-rule="evenodd" clip-rule="evenodd" d="M35.729 14.1414C41.7896 14.1414 47.2772 16.6636 51.2495 20.7409C55.2218 24.8181 57.6793 30.4509 57.6793 36.6724C57.6793 42.8936 55.2218 48.5265 51.2495 52.6037C47.2772 56.6809 41.7896 59.2032 35.729 59.2032C29.6683 59.2032 24.1807 56.6809 20.2084 52.6037C16.2359 48.5265 13.7787 42.8936 13.7787 36.6724C13.7787 30.4509 16.2359 24.8181 20.2084 20.7409C24.1807 16.6636 29.6683 14.1414 35.729 14.1414ZM51.0331 20.9647C47.1171 16.9456 41.7061 14.4589 35.729 14.4589C29.7519 14.4589 24.3406 16.9456 20.4249 20.9647C16.5087 24.9844 14.0864 30.5386 14.0864 36.6724C14.0864 42.8064 16.5087 48.3601 20.4249 52.3798C24.3406 56.3993 29.7519 58.8858 35.729 58.8858C41.7061 58.8858 47.1171 56.3993 51.0331 52.3798C54.9493 48.3601 57.3718 42.8064 57.3718 36.6724C57.3718 30.5386 54.9493 24.9844 51.0331 20.9647Z" fill="white"/>
<path fill-rule="evenodd" clip-rule="evenodd" d="M35.7288 14.9514C29.8872 14.9514 24.5975 17.3828 20.768 21.3133C16.9382 25.2441 14.5691 30.6747 14.5691 36.6717C14.5691 42.6686 16.9382 48.0994 20.7682 52.0303C24.5975 55.9609 29.8875 58.3923 35.7288 58.3923C41.5701 58.3923 46.86 55.9607 50.6896 52.0303C54.5195 48.0994 56.8889 42.6686 56.8889 36.6717C56.8889 30.6749 54.5195 25.2441 50.6896 21.3134C46.8603 17.3828 41.5701 14.9514 35.7288 14.9514ZM35.7288 15.3402C47.2067 15.3402 56.5118 24.8907 56.5118 36.6717C56.5118 48.4529 47.2067 58.0035 35.7288 58.0035C24.2508 58.0035 14.9461 48.4529 14.9461 36.6717C14.9461 24.8907 24.2508 15.3402 35.7288 15.3402Z" fill="white"/>
<path fill-rule="evenodd" clip-rule="evenodd" d="M37.3194 16.7261C37.399 16.3895 37.4464 16.0294 37.4741 15.6737C36.8985 15.6239 36.317 15.5981 35.7291 15.5981C35.2921 15.5981 34.8586 15.6123 34.4283 15.64C34.5626 16.8455 34.963 18.0141 36.1293 18.0141C36.1919 18.0141 36.2518 18.0105 36.3101 18.004C36.1457 18.0934 35.954 18.1439 35.7291 18.1439C34.9226 18.1439 34.5378 17.5003 34.3553 16.7097C34.3956 16.363 34.4028 15.998 34.3922 15.6421C33.3636 15.7103 32.356 15.856 31.3743 16.0734C31.6331 17.2358 32.1495 18.3163 33.29 18.1961C33.3521 18.1894 33.4111 18.1798 33.4686 18.1672C33.3143 18.2734 33.1284 18.3435 32.9045 18.3671C32.1794 18.4435 31.7445 17.9609 31.4756 17.3007C31.4761 16.903 31.4257 16.4829 31.3533 16.0782C30.3506 16.3017 29.375 16.6004 28.4327 16.9683C28.8583 18.0775 29.5279 19.066 30.638 18.7704C30.6985 18.7542 30.756 18.7355 30.8107 18.7145C30.6734 18.8431 30.5003 18.9413 30.2822 18.9991C29.6211 19.1751 29.14 18.8263 28.7834 18.2792C28.7232 17.8504 28.587 17.4002 28.4242 16.9715C27.4692 17.3451 26.5475 17.79 25.6668 18.2994C26.3005 19.3246 27.1576 20.1974 28.2076 19.6749C28.2641 19.647 28.3166 19.6169 28.366 19.5851C28.2564 19.739 28.1052 19.8702 27.9027 19.9708C27.2166 20.3124 26.6252 19.9677 26.1399 19.3968C26.0176 19.0314 25.8399 18.6618 25.6461 18.3115C24.758 18.8263 23.9117 19.407 23.1123 20.0469C23.8842 20.9653 24.8552 21.7002 25.8192 21.0267C25.8709 20.9909 25.9184 20.9528 25.9632 20.9141C25.8763 21.0829 25.7453 21.2353 25.5594 21.3653C24.9291 21.8054 24.2957 21.5528 23.7349 21.061C23.5614 20.7181 23.3341 20.3791 23.0928 20.0626C22.4324 20.5926 21.8038 21.1633 21.2118 21.7712C21.0856 21.9007 20.9607 22.0319 20.8381 22.1649C21.7301 22.9584 22.7927 23.5398 23.6514 22.7318C23.6976 22.6885 23.7395 22.6444 23.7781 22.5994C23.7157 22.779 23.6079 22.9492 23.4417 23.1053C22.8812 23.6323 22.2213 23.4786 21.5989 23.0771C21.3784 22.7629 21.1049 22.4615 20.8211 22.1834C20.1233 22.9398 19.4793 23.7495 18.8957 24.6056C19.8888 25.2578 21.019 25.6734 21.7545 24.7487C21.7942 24.6991 21.8293 24.6492 21.8613 24.5989C21.825 24.7858 21.7417 24.9702 21.5994 25.149C21.1215 25.7505 20.451 25.6994 19.7821 25.3982C19.5183 25.1187 19.2034 24.8597 18.8815 24.6258C18.302 25.4787 17.7819 26.3769 17.3279 27.3154C18.4012 27.8116 19.5761 28.0531 20.1727 27.0301C20.205 26.9752 20.2326 26.9204 20.2572 26.8659C20.2473 27.0561 20.1914 27.2511 20.0754 27.4492C19.6897 28.1111 19.025 28.1636 18.3253 27.969C18.0225 27.7307 17.6714 27.5205 17.3178 27.3369C16.8695 28.2659 16.4864 29.2341 16.1739 30.2343C17.3055 30.5625 18.5001 30.6227 18.9427 29.5222C18.9669 29.463 18.9865 29.4044 19.003 29.3469C19.0206 29.5367 18.9929 29.7379 18.907 29.9512C18.6217 30.66 17.9775 30.8146 17.2624 30.731C16.9267 30.5401 16.5461 30.3851 16.1672 30.2565C15.8609 31.2407 15.6231 32.2565 15.4598 33.2976C16.6261 33.4483 17.8157 33.3245 18.0935 32.1689C18.1084 32.1065 18.1192 32.0458 18.1272 31.9864C18.1725 32.1713 18.1739 32.3745 18.12 32.5987C17.942 33.3409 17.3305 33.593 16.6145 33.6211C16.2531 33.4834 15.8522 33.3885 15.4567 33.3202C15.2983 34.3362 15.2106 35.3765 15.1991 36.4356C16.3757 36.4038 17.5359 36.0971 17.6397 34.9102C17.6452 34.8461 17.6469 34.7845 17.6461 34.7243C17.7182 34.9003 17.7499 35.1008 17.7297 35.3307C17.6628 36.0935 17.0936 36.4378 16.3884 36.5765C16.0114 36.4961 15.6006 36.4643 15.1991 36.4585C15.1983 36.5295 15.1976 36.6008 15.1976 36.6718C15.1976 37.6582 15.2634 38.6284 15.3915 39.579C16.5519 39.3642 17.6577 38.8801 17.5843 37.688C17.58 37.6242 17.5727 37.5626 17.5631 37.5036C17.6601 37.6661 17.721 37.8595 17.7355 38.0901C17.7834 38.8574 17.2674 39.2869 16.5866 39.5339C16.2023 39.513 15.7921 39.545 15.3943 39.6013C15.5364 40.6465 15.7526 41.667 16.0379 42.6573C17.1543 42.2646 18.1768 41.6141 17.9279 40.4467C17.9149 40.3841 17.8985 40.3246 17.8797 40.2676C18.0003 40.413 18.0891 40.5945 18.137 40.8203C18.2979 41.5749 17.8469 42.0809 17.2063 42.431C16.8254 42.4695 16.4271 42.564 16.0449 42.68C16.3362 43.6876 16.699 44.6635 17.1275 45.6021C18.1737 45.0428 19.0895 44.2427 18.6735 43.1271C18.6516 43.0669 18.6268 43.0108 18.6003 42.9573C18.7402 43.0827 18.8545 43.2484 18.9349 43.4641C19.2046 44.1878 18.829 44.7587 18.2435 45.2036C17.8742 45.2999 17.4969 45.4526 17.1375 45.624C17.5722 46.5724 18.073 47.4819 18.6352 48.3465C19.5883 47.6357 20.3775 46.7072 19.8069 45.6673C19.7764 45.6114 19.7437 45.5594 19.71 45.5106C19.8664 45.6136 20.0031 45.7605 20.1135 45.9618C20.4845 46.6378 20.1934 47.2599 19.6765 47.7889C19.3272 47.9391 18.9776 48.1457 18.6484 48.3675C19.2144 49.2363 19.8412 50.0599 20.5235 50.8311C21.3646 49.987 22.0113 48.9527 21.3014 48.0099C21.2631 47.9593 21.2238 47.9126 21.1834 47.8693C21.3524 47.948 21.5084 48.073 21.6461 48.2557C22.1079 48.8687 21.9088 49.5266 21.473 50.1264C21.1497 50.327 20.8336 50.5826 20.5398 50.8499C20.7585 51.096 20.9824 51.3372 21.2118 51.5726C21.7003 52.0744 22.2143 52.5511 22.7507 53.0006C23.4622 52.0421 23.9535 50.9259 23.1205 50.0999C23.076 50.0552 23.0302 50.0149 22.9838 49.9779C23.1622 50.0308 23.3345 50.1315 23.4963 50.2921C24.0374 50.8289 23.9348 51.5069 23.59 52.163C23.2984 52.4097 23.0226 52.7093 22.7702 53.0167C23.556 53.674 24.3899 54.2732 25.2666 54.807C25.8342 53.7551 26.1601 52.5819 25.2224 51.8888C25.1716 51.8515 25.1208 51.8183 25.0698 51.7886C25.2541 51.8144 25.4381 51.8885 25.6208 52.0236C26.2285 52.4726 26.2254 53.1537 25.9798 53.8497C25.726 54.1384 25.4947 54.477 25.2881 54.82C26.1584 55.3487 27.07 55.8132 28.0166 56.2073C28.4271 55.0843 28.5803 53.8787 27.5563 53.3343C27.5007 53.3047 27.4458 53.2796 27.3914 53.2577C27.577 53.256 27.7701 53.3018 27.9699 53.408C28.585 53.7349 28.7107 54.3368 28.612 54.9994C28.3763 55.356 28.184 55.7818 28.0251 56.2109C28.9597 56.5997 29.9289 56.9199 30.926 57.1652C31.1268 55.9612 31.0639 54.71 29.9352 54.3767C29.8753 54.359 29.8163 54.3455 29.759 54.3349C29.9408 54.2956 30.1386 54.3017 30.3549 54.3654C31.0916 54.5831 31.3051 55.251 31.2921 56.0134C31.1419 56.3708 31.0314 56.7711 30.9474 57.1703C31.9247 57.4098 32.9293 57.5777 33.9554 57.6677C33.9768 56.4457 33.7313 55.2173 32.566 55.0624C32.5042 55.0543 32.4442 55.0499 32.3857 55.0485C32.5595 54.9818 32.756 54.9568 32.9794 54.9867C33.7913 55.0944 34.089 55.8025 34.1654 56.6267C34.0809 56.9613 34.0272 57.3189 33.992 57.6708C34.5646 57.7199 35.1438 57.7458 35.7291 57.7458C36.1685 57.7458 36.6043 57.7313 37.0367 57.7034C36.9291 56.5078 36.555 55.3521 35.4012 55.3208C35.3386 55.3188 35.2784 55.321 35.2201 55.3259C35.3865 55.2411 35.5794 55.1959 35.8042 55.2019C36.5446 55.2218 36.9153 55.7744 37.0964 56.4803C37.0437 56.8713 37.0396 57.2919 37.0598 57.7019C38.0876 57.6342 39.0952 57.4891 40.0765 57.2722C39.7929 56.1045 39.2515 55.016 38.104 55.166C38.0421 55.1742 37.9829 55.1855 37.9261 55.1992C38.0777 55.0897 38.2619 55.0148 38.4851 54.9856C39.2233 54.8892 39.6723 55.3829 39.9559 56.0575C39.9618 56.4509 40.0194 56.8663 40.0989 57.2671C41.1014 57.0439 42.0767 56.7458 43.0181 56.3785C42.5667 55.2678 41.8719 54.2752 40.7593 54.6014C40.6991 54.6187 40.6423 54.6389 40.5879 54.6616C40.722 54.5296 40.8929 54.4271 41.1091 54.3638C41.7799 54.1673 42.2754 54.5224 42.6476 55.0803C42.7131 55.505 42.8563 55.9504 43.0268 56.3751C43.9831 56.0019 44.9042 55.5573 45.7859 55.0478C45.1265 54.0272 44.2426 53.1551 43.1962 53.7086C43.1404 53.7378 43.0886 53.7694 43.0398 53.8023C43.1462 53.6458 43.2943 53.511 43.4941 53.4051C44.1836 53.0406 44.7916 53.3884 45.2952 53.9646C45.4221 54.3257 45.6051 54.6905 45.8059 55.036C46.694 54.5212 47.5412 53.941 48.3411 53.3008C47.5444 52.3903 46.5469 51.6612 45.5909 52.3645C45.5398 52.4021 45.4931 52.4408 45.4493 52.4808C45.5321 52.3101 45.6597 52.1546 45.8425 52.02C46.4725 51.5563 47.1235 51.8093 47.7033 52.3038C47.8802 52.6419 48.1126 52.9748 48.3593 53.2864C49.0224 52.7547 49.6525 52.1823 50.2467 51.5726C50.3713 51.4445 50.4944 51.315 50.6155 51.1838C49.6999 50.4016 48.6122 49.8293 47.7656 50.6657C47.7206 50.7103 47.6797 50.7555 47.6421 50.8015C47.7002 50.6204 47.8042 50.4476 47.9667 50.2875C48.5233 49.7374 49.2001 49.8891 49.841 50.2896C50.0652 50.5985 50.343 50.8942 50.6317 51.1665C51.3303 50.4098 51.9748 49.6001 52.5592 48.7437C51.5444 48.1067 50.39 47.7037 49.6703 48.6554C49.6317 48.7059 49.5978 48.7567 49.567 48.808C49.599 48.6202 49.6778 48.4336 49.8157 48.2512C50.2879 47.6268 50.9757 47.674 51.6638 47.973C51.9301 48.2461 52.2474 48.4977 52.5724 48.7243C53.1526 47.8714 53.6732 46.9729 54.1275 46.0345C53.0352 45.556 51.8381 45.3307 51.2608 46.3778C51.23 46.4337 51.2035 46.4888 51.1801 46.5442C51.1852 46.3535 51.2372 46.1573 51.3479 45.9562C51.7247 45.2729 52.4055 45.2137 53.1235 45.403C53.4276 45.635 53.7805 45.8375 54.1376 46.0137C54.5861 45.0846 54.9699 44.1163 55.2826 43.1155C54.1345 42.8081 52.9203 42.7669 52.4997 43.8883C52.4773 43.9483 52.4588 44.007 52.4441 44.0651C52.4217 43.8758 52.4449 43.6741 52.5257 43.4583C52.799 42.7296 53.4581 42.5663 54.1905 42.6419C54.5269 42.8263 54.908 42.9737 55.2891 43.0943C55.5958 42.1098 55.8337 41.0938 55.9974 40.0523C54.8178 39.9244 53.612 40.0701 53.3594 41.2433C53.3458 41.3059 53.3363 41.3669 53.33 41.4266C53.2803 41.2426 53.274 41.0396 53.3224 40.814C53.4861 40.0545 54.1099 39.7908 54.8421 39.7521C55.2029 39.8835 55.6038 39.9707 56.0011 40.0311C56.1597 39.0146 56.2474 37.9741 56.2592 36.9145C55.0729 36.9711 53.9 37.3018 53.8232 38.502C53.8189 38.5661 53.8189 38.628 53.8206 38.688C53.7448 38.5138 53.7084 38.314 53.7231 38.0837C53.773 37.3057 54.3527 36.9484 55.0721 36.7967C55.4484 36.8711 55.8577 36.8952 56.2588 36.8928C56.2597 36.8191 56.2605 36.7457 56.2605 36.6718C56.2605 35.6878 56.1948 34.7192 56.0674 33.7711C54.9005 34.0119 53.786 34.5218 53.8886 35.7225C53.8945 35.7865 53.9028 35.8477 53.9141 35.9064C53.813 35.7463 53.7475 35.5546 53.728 35.3246C53.6613 34.5449 54.1857 34.1007 54.8781 33.8388C55.2602 33.8542 55.6685 33.8145 56.065 33.7502C55.9234 32.7043 55.7073 31.6832 55.4217 30.6923C54.3034 31.112 53.2753 31.7897 53.5544 32.9612C53.5691 33.0236 53.5869 33.0825 53.6066 33.1391C53.4831 32.9964 53.3899 32.8173 53.3365 32.5929C53.1547 31.8294 53.6119 31.3072 54.262 30.9403C54.6404 30.8965 55.0355 30.7951 55.416 30.6713C55.1246 29.6633 54.7618 28.6863 54.3332 27.7474C53.2889 28.3336 52.3716 29.1613 52.8179 30.2765C52.8415 30.3357 52.8675 30.3914 52.8952 30.4443C52.7524 30.3222 52.6344 30.1593 52.549 29.9457C52.2574 29.2166 52.6364 28.6295 53.2286 28.1663C53.5941 28.0651 53.9677 27.906 54.3239 27.7273C53.8898 26.7783 53.3887 25.8679 52.8268 25.0027C51.8789 25.7396 51.0924 26.696 51.6926 27.7305C51.7246 27.7856 51.7583 27.8369 51.7935 27.885C51.6346 27.7858 51.4947 27.6424 51.3794 27.444C50.9859 26.7655 51.2787 26.126 51.8002 25.5779C52.1452 25.423 52.4895 25.2111 52.8141 24.9829C52.2478 24.1135 51.6211 23.2891 50.9388 22.5175C50.1069 23.3869 49.4665 24.4477 50.205 25.3809C50.2442 25.4308 50.2849 25.4765 50.3268 25.5188C50.1554 25.4442 49.9967 25.3233 49.8546 25.144C49.3702 24.532 49.5686 23.8569 50.006 23.2379C50.3248 23.0332 50.6352 22.7727 50.9233 22.4998C50.7033 22.2512 50.4777 22.0086 50.2466 21.7712C49.7588 21.2707 49.2467 20.7956 48.7125 20.3473C48.0133 21.3294 47.5316 22.4708 48.392 23.2836C48.4382 23.3272 48.4849 23.3664 48.5317 23.4021C48.352 23.3537 48.1777 23.2574 48.0121 23.1009C47.4485 22.5681 47.5481 21.873 47.8922 21.1975C48.178 20.9476 48.4477 20.6442 48.6937 20.3319C47.9078 19.6739 47.0741 19.0747 46.1972 18.5404C45.6452 19.6135 45.3327 20.8106 46.2955 21.4864C46.3475 21.5225 46.3988 21.5545 46.4505 21.5829C46.2659 21.5615 46.0798 21.4917 45.8937 21.3616C45.265 20.9203 45.2626 20.2228 45.5038 19.5078C45.7524 19.2167 45.9772 18.8753 46.177 18.5279C45.3067 17.9987 44.3949 17.5334 43.448 17.1389C43.0558 18.2811 42.9188 19.5083 43.9654 20.032C44.0213 20.0601 44.0771 20.084 44.1322 20.1042C43.9464 20.1106 43.7523 20.0695 43.5501 19.9684C42.916 19.6508 42.7821 19.036 42.875 18.3561C43.1052 17.998 43.2901 17.5695 43.4415 17.1363C42.5055 16.7468 41.5357 16.4258 40.5375 16.1798C40.3591 17.399 40.4428 18.6683 41.5894 18.9762C41.6498 18.9926 41.709 19.0046 41.7668 19.0135C41.5857 19.0574 41.3878 19.0562 41.17 18.9977C40.4176 18.7957 40.192 18.1165 40.1939 17.3398C40.3393 16.9811 40.4428 16.578 40.5194 16.1754C39.541 15.9354 38.5355 15.7672 37.5083 15.6766C37.5108 16.91 37.7798 18.1531 38.959 18.2802C39.0212 18.2869 39.0813 18.2898 39.1399 18.2896C38.9673 18.3608 38.7715 18.3902 38.5476 18.3662C37.7235 18.2775 37.4108 17.5608 37.3193 16.7261H37.3194ZM32.9269 18.5905C33.7154 18.5075 34.1018 17.9284 34.2745 17.1855C34.5248 17.8692 34.9633 18.3683 35.7291 18.3683C36.4933 18.3683 36.9312 17.8713 37.1821 17.19C37.354 17.9294 37.7394 18.5048 38.5248 18.5895C39.2194 18.6645 39.6857 18.297 40.0041 17.736C40.0852 18.4429 40.389 19.0198 41.1149 19.2148C41.7556 19.3867 42.2515 19.1341 42.6394 18.6769C42.6285 19.3111 42.838 19.8617 43.4546 20.1702C44.1126 20.4995 44.6964 20.2842 45.1984 19.8264C45.0605 20.4985 45.1678 21.1238 45.7707 21.547C46.3743 21.9705 46.9825 21.8453 47.5429 21.4678C47.3079 22.1165 47.3236 22.7554 47.8641 23.2658C48.4003 23.7726 49.0166 23.7406 49.6226 23.4529C49.2964 24.0618 49.2206 24.6985 49.685 25.2855C50.1424 25.8636 50.7537 25.925 51.3903 25.7329C50.9802 26.2878 50.8137 26.9078 51.1917 27.5586C51.5605 28.1945 52.1513 28.348 52.8035 28.2563C52.3192 28.7429 52.0666 29.3305 52.3466 30.0309C52.6189 30.7118 53.1767 30.9537 53.8307 30.9637C53.2829 31.3703 52.9495 31.9122 53.1243 32.6461C53.2939 33.3587 53.808 33.6837 54.4501 33.795C53.8523 34.1118 53.4459 34.5948 53.5102 35.3443C53.5728 36.0772 54.035 36.4782 54.656 36.6877C54.0223 36.908 53.553 37.3214 53.5051 38.069C53.4581 38.8064 53.8588 39.2763 54.446 39.5802C53.7889 39.7003 53.2663 40.036 53.109 40.7657C52.953 41.4901 53.2829 42.0181 53.8217 42.4103C53.1526 42.4267 52.584 42.678 52.3215 43.3777C52.0613 44.0718 52.3126 44.6455 52.7908 45.1167C52.1222 45.029 51.5193 45.1899 51.1577 45.8457C50.8004 46.4936 50.9675 47.0998 51.3742 47.6381C50.72 47.4477 50.0962 47.5146 49.6429 48.1137C49.1996 48.7001 49.2776 49.323 49.6019 49.9145C48.9791 49.6264 48.3495 49.5977 47.815 50.1259C47.2952 50.6392 47.2839 51.265 47.5196 51.8965C46.942 51.5161 46.3204 51.3923 45.7151 51.8375C45.132 52.2663 45.0313 52.8795 45.1724 53.535C44.6546 53.0714 44.0563 52.8551 43.3937 53.2057C42.7959 53.5219 42.5944 54.0621 42.6103 54.6804C42.2085 54.2136 41.6997 53.9573 41.0492 54.148C40.3396 54.3561 40.0462 54.9241 39.9742 55.6167C39.6429 55.0439 39.1645 54.6705 38.4574 54.7629C37.725 54.8587 37.3514 55.3755 37.1787 56.0496C36.9361 55.4366 36.519 54.9968 35.8102 54.9777C35.0288 54.9565 34.5751 55.4648 34.3094 56.1632C34.151 55.4356 33.7792 54.8665 33.0076 54.764C32.2992 54.67 31.8194 55.0436 31.4869 55.6176C31.4156 54.9264 31.1236 54.359 30.4153 54.15C29.7641 53.9578 29.2541 54.2138 28.8509 54.6811C28.867 54.0645 28.6662 53.5257 28.0703 53.2089C27.4075 52.8564 26.808 53.0723 26.2885 53.5367C26.43 52.8828 26.3298 52.2706 25.7486 51.8414C25.1431 51.3943 24.5203 51.5178 23.9408 51.8986C24.1768 51.2688 24.1659 50.644 23.6483 50.1308C23.1138 49.6004 22.4823 49.6287 21.8578 49.9172C22.1823 49.3269 22.261 48.705 21.8195 48.1183C21.3666 47.5175 20.7416 47.4502 20.0865 47.6401C20.4924 47.1032 20.6593 46.4989 20.3042 45.8515C19.943 45.1937 19.339 45.0322 18.6689 45.1193C19.1463 44.6499 19.3974 44.0773 19.1389 43.3839C18.8772 42.6826 18.3078 42.4305 17.6368 42.4134C18.1754 42.0224 18.5052 41.4956 18.3506 40.7722C18.1944 40.0407 17.6709 39.7039 17.0129 39.5831C17.5987 39.2805 17.9991 38.8119 17.9538 38.0757C17.9074 37.3265 17.4372 36.9118 16.8023 36.6906C17.422 36.4821 17.8833 36.0822 17.9473 35.3508C18.0133 34.6001 17.606 34.1159 17.0069 33.7979C17.6483 33.6876 18.1616 33.3638 18.3326 32.6526C18.5088 31.9177 18.1754 31.3748 17.6264 30.9666C18.2789 30.9571 18.8357 30.7162 19.1088 30.0369C19.3912 29.3363 19.1379 28.747 18.653 28.2587C19.3038 28.3512 19.8937 28.1983 20.2632 27.5643C20.6429 26.9133 20.477 26.2919 20.0663 25.7355C20.7014 25.9276 21.3112 25.867 21.7689 25.2911C22.2355 24.7042 22.1596 24.0656 21.833 23.4551C22.438 23.7428 23.0531 23.7753 23.5895 23.2706C24.1317 22.7605 24.1479 22.12 23.9131 21.4698C24.4724 21.847 25.0788 21.9725 25.6825 21.5509C26.2875 21.1282 26.3953 20.5014 26.2574 19.827C26.7579 20.285 27.3406 20.5005 27.9979 20.1731C28.6164 19.8651 28.8263 19.3138 28.816 18.6781C29.2028 19.1344 29.6976 19.3867 30.3371 19.2165C31.0642 19.023 31.3692 18.4453 31.4513 17.7373C31.7684 18.297 32.2333 18.6637 32.9269 18.5905Z" fill="white"/>
<path fill-rule="evenodd" clip-rule="evenodd" d="M35.7787 16.4067L32.0613 30.4751L26.4213 27.1567L35.7787 36.7611V16.4067Z" fill="white"/>
<path fill-rule="evenodd" clip-rule="evenodd" d="M45.1377 27.155L39.4969 30.4744L35.7788 16.4067V36.7611L45.1377 27.155Z" fill="white"/>
<path fill-rule="evenodd" clip-rule="evenodd" d="M55.5177 36.765L41.9403 32.9858L45.27 27.0234L35.7786 36.7617L55.5177 36.765Z" fill="white"/>
<path fill-rule="evenodd" clip-rule="evenodd" d="M45.1768 46.4078L41.9435 40.6182L55.7791 36.7656L35.7786 36.7622L45.1768 46.4078Z" fill="white"/>
<path fill-rule="evenodd" clip-rule="evenodd" d="M35.7788 57.1898L39.4969 43.1223L45.3064 46.5411L35.7788 36.7617V57.1898Z" fill="white"/>
<path fill-rule="evenodd" clip-rule="evenodd" d="M26.2524 46.5394L32.0613 43.1216L35.7786 57.1898V36.7617L26.2524 46.5394Z" fill="white"/>
<path fill-rule="evenodd" clip-rule="evenodd" d="M15.78 36.7658L29.6148 40.6182L26.3804 46.4079L35.7785 36.7617L15.78 36.7658Z" fill="white"/>
<path fill-rule="evenodd" clip-rule="evenodd" d="M29.6181 32.9824L16.0419 36.7616H35.7786L26.2879 27.02L29.6181 32.9824Z" fill="white"/>
</svg>
