<svg width="26" height="20" viewBox="0 0 26 20" fill="none" xmlns="http://www.w3.org/2000/svg">
    <path d="M11.6381 15.4656C11.6381 16.6802 11.1429 17.7328 10.1524 18.6235C9.16191 19.5142 8.00635 20 6.60317 20C4.45714 20 2.80635 19.2713 1.65079 17.8947C0.577778 16.5182 0 14.5749 0 12.1457C0 9.87854 0.990476 7.61134 2.97143 5.26316C4.95238 2.91498 7.26349 1.21457 10.0698 0L11.3905 2.02429C9.16191 3.07692 7.42857 4.2915 6.19048 5.66802C4.95238 7.04453 4.20952 8.74494 4.04444 10.6883H5.69524C6.93333 10.6883 7.84127 10.8502 8.66667 11.0931C9.40952 11.336 10.0698 11.7409 10.4825 12.2267C10.8952 12.7126 11.2254 13.1984 11.3905 13.7652C11.5556 14.251 11.6381 14.8178 11.6381 15.4656ZM26 15.4656C26 16.6802 25.5048 17.7328 24.5143 18.6235C23.5238 19.5142 22.3683 20 20.9651 20C18.819 20 17.1683 19.2713 16.0127 17.8947C14.8571 16.5182 14.2794 14.5749 14.2794 12.1457C14.2794 9.87854 15.2698 7.61134 17.2508 5.26316C19.2317 2.91498 21.6254 1.21457 24.3492 0L25.6698 2.02429C23.4413 3.07692 21.7905 4.2915 20.5524 5.66802C19.3143 7.04453 18.5714 8.74494 18.4063 10.6883H20.0571C21.2952 10.6883 22.2032 10.8502 23.0286 11.0931C23.7714 11.336 24.4317 11.7409 24.8444 12.2267C25.2571 12.7126 25.5873 13.1984 25.7524 13.7652C25.9175 14.251 26 14.8178 26 15.4656Z" fill="#B49A67"/>
    </svg>