<svg width="179" height="41" viewBox="0 0 179 41" fill="none" xmlns="http://www.w3.org/2000/svg">
<path d="M35.7647 6.99977H0.92627V0.511719H35.7647V6.99977ZM2.23791 5.65742H34.4211V1.82211H2.23791V5.65742Z" fill="#223A76"/>
<path d="M6.84448 40.0794V9.36499H13.3387V33.9109L6.84448 40.0794ZM8.15612 10.7073V37.0111L11.9951 33.3676V10.7073H8.15612Z" fill="#223A76"/>
<path d="M15.2903 31.5458V9.36499H21.7845V25.3454L15.2903 31.5458ZM16.6019 10.7073V28.4456L20.4409 24.8021V10.7073H16.6019Z" fill="#223A76"/>
<path d="M23.7361 23.1721V9.36499H30.2303V17.3872L23.7361 23.1721ZM25.0477 10.7073V20.2317L28.8867 16.8119V10.7073H25.0477Z" fill="#223A76"/>
<path d="M47.9853 17.8025V24.0988H47.2175V17.8025H45.522V17.0674H49.7128V17.8025H47.9853Z" fill="#223A76"/>
<path d="M56.2711 22.1172H53.2639L52.4321 24.0988H51.5684L54.7995 16.7158L57.9666 24.0988H57.1028L56.2711 22.1172ZM55.9512 21.3821L54.7675 18.5695L53.5518 21.3821H55.9512Z" fill="#223A76"/>
<path d="M62.1893 17.0674C62.6691 17.0674 63.3729 17.0993 63.9168 17.4509C64.3327 17.7386 64.6846 18.2499 64.6846 19.017C64.6846 20.1037 63.9808 20.8707 62.8931 20.9666L65.1325 24.0988H64.1727L62.0293 21.0305H61.8374V24.0988H61.0696V17.0674H62.1893ZM61.8374 20.3274H62.3492C63.309 20.3274 63.9168 19.848 63.9168 19.049C63.9168 18.6654 63.7888 18.2819 63.341 18.0262C63.021 17.8344 62.6691 17.8344 62.3172 17.8344H61.8374V20.3274Z" fill="#223A76"/>
<path d="M72.3626 22.1172H69.3554L68.5237 24.0988H67.6599L70.891 16.7158L74.0582 24.0988H73.1944L72.3626 22.1172ZM72.0427 21.3821L70.859 18.5695L69.6434 21.3821H72.0427Z" fill="#223A76"/>
<path d="M80.2004 18.4418C80.1045 18.2501 79.9445 18.0263 79.7846 17.9305C79.6566 17.8346 79.4007 17.6748 78.9848 17.6748C78.281 17.6748 77.8011 18.1222 77.8011 18.7614C77.8011 19.0491 77.8651 19.2089 78.057 19.3687C78.281 19.5924 78.5369 19.6883 78.7928 19.8162L79.4646 20.1038C79.8805 20.2956 80.2644 20.4873 80.5523 20.775C80.9042 21.1265 81.0642 21.542 81.0642 22.0534C81.0642 23.3638 80.1045 24.2268 78.8248 24.2268C78.3449 24.2268 77.7691 24.1309 77.2892 23.6515C76.9373 23.2999 76.7134 22.8205 76.6494 22.405L77.4172 22.1813C77.4812 22.5648 77.6411 22.8524 77.8331 23.0762C78.153 23.3958 78.4729 23.4597 78.8568 23.4597C79.8165 23.4597 80.2644 22.7885 80.2644 22.0534C80.2644 21.7338 80.1684 21.4462 79.9125 21.2224C79.7206 21.0307 79.4326 20.9028 79.0807 20.743L78.4409 20.4554C78.153 20.3275 77.8331 20.1677 77.5132 19.8801C77.1933 19.5924 77.0333 19.2728 77.0333 18.7295C77.0333 17.6428 77.8651 16.9077 79.0168 16.9077C79.4646 16.9077 79.7846 17.0036 80.1365 17.2273C80.4244 17.4191 80.6803 17.7067 80.8083 17.9944L80.2004 18.4418Z" fill="#223A76"/>
<path d="M84.2314 20.5832C84.2314 18.4738 85.863 16.9397 87.9104 16.9397C89.9579 16.9397 91.5894 18.4738 91.5894 20.5832C91.5894 22.6607 89.9579 24.2268 87.9104 24.2268C85.863 24.2268 84.2314 22.6607 84.2314 20.5832ZM85.0312 20.5832C85.0312 22.2132 86.3109 23.4917 87.9104 23.4917C89.51 23.4917 90.7896 22.2132 90.7896 20.5832C90.7896 18.9532 89.51 17.6748 87.9104 17.6748C86.3109 17.6748 85.0312 18.9532 85.0312 20.5832Z" fill="#223A76"/>
<path d="M94.8206 17.0674L96.804 22.4368L98.7874 17.0674H99.6512L96.804 24.5462L93.9568 17.0674H94.8206Z" fill="#223A76"/>
<path d="M112.767 21.5101C112.576 21.7658 112.288 22.1174 111.872 22.5648L113.055 24.0989H112.096L111.328 23.1081C110.72 23.7154 109.856 24.2268 109.056 24.2268C107.905 24.2268 107.009 23.3958 107.009 22.2772C107.009 21.5101 107.425 21.0626 107.649 20.807C108.033 20.4234 108.673 20.0399 108.833 19.944C108.353 19.3368 108.129 18.9213 108.129 18.4419C108.129 17.7068 108.641 16.9397 109.664 16.9397C110.656 16.9397 111.168 17.6428 111.168 18.346C111.168 18.6656 111.072 19.145 110.528 19.6244C110.336 19.7842 110.4 19.6883 109.952 20.0719L111.424 21.9576C111.808 21.5421 112.032 21.3183 112.224 21.0307L112.767 21.5101ZM109.28 20.5193C108.769 20.8389 108.481 21.0626 108.289 21.2544C108.097 21.4462 107.777 21.7338 107.777 22.2772C107.777 22.9803 108.289 23.5236 109.024 23.5236C109.76 23.5236 110.56 22.8205 110.816 22.5648L109.28 20.5193ZM109.472 19.4966L109.952 19.145C110.368 18.8254 110.432 18.5697 110.432 18.346C110.432 17.8346 110.048 17.6109 109.664 17.6109C109.216 17.6109 108.897 17.9305 108.897 18.3779C108.897 18.6975 109.056 18.8893 109.184 19.0811L109.472 19.4966Z" fill="#223A76"/>
<path d="M122.013 17.0674C122.717 17.0674 123.325 17.1633 123.805 17.5788C124.316 18.0262 124.444 18.6335 124.444 19.0809C124.444 20.0717 123.837 21.0625 122.205 21.0625H121.533V24.1307H120.765V17.0993H122.013V17.0674ZM121.533 20.2954H122.173C123.101 20.2954 123.677 19.816 123.677 19.017C123.677 17.8984 122.621 17.8025 122.109 17.8025H121.533V20.2954Z" fill="#223A76"/>
<path d="M131.003 22.1172H127.995L127.164 24.0988H126.3L129.531 16.7158L132.698 24.0988H131.834L131.003 22.1172ZM130.715 21.3821L129.531 18.5695L128.315 21.3821H130.715Z" fill="#223A76"/>
<path d="M136.921 17.0674C137.401 17.0674 138.104 17.0993 138.648 17.4509C139.064 17.7386 139.416 18.2499 139.416 19.017C139.416 20.1037 138.712 20.8707 137.625 20.9666L139.864 24.0988H138.904L136.761 21.0305H136.569V24.0988H135.801V17.0674H136.921ZM136.601 20.3274H137.113C138.072 20.3274 138.68 19.848 138.68 19.049C138.68 18.6654 138.552 18.2819 138.104 18.0262C137.784 17.8344 137.433 17.8344 137.081 17.8344H136.601V20.3274Z" fill="#223A76"/>
<path d="M144.951 17.8025V24.0988H144.183V17.8025H142.455V17.0674H146.646V17.8025H144.951Z" fill="#223A76"/>
<path d="M149.845 24.099V16.748L155.348 22.501V17.0677H156.116V24.4187L150.613 18.6657V24.099H149.845Z" fill="#223A76"/>
<path d="M163.697 17.8025H160.818V19.8799H163.601V20.615H160.818V23.3637H163.697V24.0988H160.05V17.0674H163.697V17.8025Z" fill="#223A76"/>
<path d="M168.368 17.0674C168.848 17.0674 169.552 17.0993 170.096 17.4509C170.512 17.7386 170.864 18.2499 170.864 19.017C170.864 20.1037 170.16 20.8707 169.072 20.9666L171.311 24.0988H170.352L168.208 21.0305H168.016V24.0988H167.249V17.0674H168.368ZM168.016 20.3274H168.528C169.488 20.3274 170.096 19.848 170.096 19.049C170.096 18.6654 169.968 18.2819 169.52 18.0262C169.2 17.8344 168.848 17.8344 168.496 17.8344H168.016V20.3274Z" fill="#223A76"/>
<path d="M177.806 18.4418C177.71 18.2501 177.55 18.0263 177.39 17.9305C177.262 17.8346 177.006 17.6748 176.59 17.6748C175.886 17.6748 175.407 18.1222 175.407 18.7614C175.407 19.0491 175.471 19.2089 175.663 19.3687C175.886 19.5924 176.142 19.6883 176.398 19.8162L177.07 20.1038C177.486 20.2956 177.87 20.4873 178.158 20.775C178.51 21.1265 178.67 21.542 178.67 22.0534C178.67 23.3638 177.71 24.2268 176.43 24.2268C175.95 24.2268 175.375 24.1309 174.895 23.6515C174.543 23.2999 174.319 22.8205 174.255 22.405L175.023 22.1813C175.087 22.5648 175.247 22.8524 175.439 23.0762C175.758 23.3958 176.078 23.4597 176.462 23.4597C177.422 23.4597 177.87 22.7885 177.87 22.0534C177.87 21.7338 177.774 21.4462 177.518 21.2224C177.326 21.0307 177.038 20.9028 176.686 20.743L176.046 20.4554C175.758 20.3275 175.439 20.1677 175.119 19.8801C174.799 19.5924 174.639 19.2728 174.639 18.7295C174.639 17.6428 175.471 16.9077 176.622 16.9077C177.07 16.9077 177.39 17.0036 177.742 17.2273C178.03 17.4191 178.254 17.7067 178.414 17.9944L177.806 18.4418Z" fill="#223A76"/>
</svg>